<svg width="24" height="24" viewBox="0 0 24 24" fill="none" xmlns="http://www.w3.org/2000/svg">
<path fill-rule="evenodd" clip-rule="evenodd" d="M3.87868 1.87868C4.44129 1.31607 5.20435 1 6 1H13C13.2652 1 13.5196 1.10536 13.7071 1.29289L13.7076 1.29342L20.7071 8.29289C20.8946 8.48043 21 8.73478 21 9V11.5H19V10H13C12.4477 10 12 9.55228 12 9V3H6C5.73478 3 5.48043 3.10536 5.29289 3.29289C5.10536 3.48043 5 3.73478 5 4V20C5 20.2652 5.10536 20.5196 5.29289 20.7071C5.48043 20.8946 5.73478 21 6 21H18C18.2652 21 18.5196 20.8946 18.7071 20.7071C18.7694 20.6448 18.8227 20.575 18.866 20.5H20.9581C20.8549 21.1102 20.5647 21.678 20.1213 22.1213C19.5587 22.6839 18.7957 23 18 23H6C5.20435 23 4.44129 22.6839 3.87868 22.1213C3.31607 21.5587 3 20.7957 3 20V4C3 3.20435 3.31607 2.44129 3.87868 1.87868ZM14 4.41421L17.5858 8H14V4.41421Z" fill="#00B2FF"/>
<path fill-rule="evenodd" clip-rule="evenodd" d="M10.5 13H10V13.5V17V19H11V17.5H12.5C13.3284 17.5 14 16.8284 14 16V14.5C14 13.6716 13.3284 13 12.5 13H10.5ZM12.5 16.5H11V14H12.5C12.7761 14 13 14.2239 13 14.5V16C13 16.2761 12.7761 16.5 12.5 16.5ZM20 19H21V17H23V16H21V14H23V13H20V14V16V17V19ZM15 13H15.5H17.5C18.3284 13 19 13.6716 19 14.5V17.5C19 18.3284 18.3284 19 17.5 19H15.5H15V18.5V13.5V13ZM16 18H17.5C17.7761 18 18 17.7761 18 17.5V14.5C18 14.2239 17.7761 14 17.5 14H16V18ZM9 18H8V19H9V18Z" fill="#00B2FF"/>
</svg>
