<svg width="206" height="44" viewBox="0 0 206 44" fill="none" xmlns="http://www.w3.org/2000/svg">
<path d="M16.7739 1.17308C18.863 -0.0217226 21.4369 -0.0217227 23.526 1.17308L36.7833 8.75517C38.8724 9.94998 40.1593 12.1581 40.1593 14.5477V29.7119C40.1593 32.1015 38.8724 34.3095 36.7833 35.5043L23.526 43.0864C21.4369 44.2812 18.863 44.2812 16.7739 43.0864L3.51667 35.5043C1.42757 34.3095 0.140625 32.1015 0.140625 29.7119V14.5477C0.140625 12.1581 1.42757 9.94998 3.51667 8.75518L16.7739 1.17308Z" fill="#48C8FF"/>
<path fill-rule="evenodd" clip-rule="evenodd" d="M25.5259 12.2929C27.2268 11.3202 29.3223 11.3202 31.0231 12.2929C32.7239 13.2656 33.7717 15.0633 33.7717 17.0088C33.7717 18.9543 32.7239 20.752 31.0231 21.7247C29.3223 22.6975 27.2268 22.6975 25.5259 21.7247C23.8251 20.752 22.7773 18.9543 22.7773 17.0088C22.7773 15.0633 23.8251 13.2656 25.5259 12.2929ZM29.5461 14.8271C28.7592 14.3771 27.7898 14.3771 27.0029 14.8271C26.2161 15.2771 25.7314 16.1088 25.7314 17.0088C25.7314 17.9088 26.2161 18.7405 27.0029 19.1905C27.7898 19.6405 28.7592 19.6405 29.5461 19.1905C30.3329 18.7405 30.8176 17.9088 30.8176 17.0088C30.8176 16.1088 30.3329 15.2771 29.5461 14.8271Z" fill="black"/>
<path d="M127.446 15.3262C129.195 15.3262 132.093 15.9348 135.434 17.5818L135.464 17.5225V12.3029C132.496 11.1017 129.74 10.5262 127.582 10.5028L127.547 10.5025C127.513 10.5022 127.479 10.5021 127.446 10.5021V10.5032C126.318 10.5155 125.241 10.6803 124.215 10.9978C123.171 11.328 122.248 11.8234 121.448 12.4839C120.648 13.1224 120.015 13.915 119.548 14.8617C119.081 15.8084 118.848 16.8983 118.848 18.1312C118.848 19.0118 118.97 19.7824 119.214 20.4429C119.481 21.1034 119.87 21.6869 120.381 22.1932C120.915 22.6996 121.582 23.151 122.382 23.5473C123.182 23.9216 124.126 24.2738 125.215 24.6041C126.038 24.8462 126.793 25.0664 127.482 25.2646C128.194 25.4627 128.805 25.6829 129.316 25.9251C129.827 26.1452 130.227 26.3984 130.516 26.6846C130.805 26.9708 130.95 27.3341 130.95 27.7745C130.95 28.7082 129.606 29.3447 128.079 29.5618V29.5604C127.86 29.5817 127.641 29.5904 127.43 29.5904V29.5883C125.681 29.5883 122.783 28.9798 119.442 27.3327L119.412 27.3921V32.6117C122.371 33.8092 125.119 34.3848 127.273 34.4115C129.154 34.4752 130.347 34.2542 131.25 34.0492C132.316 33.785 133.261 33.3777 134.083 32.8273C134.906 32.2548 135.561 31.5173 136.05 30.6146C136.562 29.6899 136.817 28.5671 136.817 27.246C136.817 26.1673 136.639 25.2425 136.284 24.472C135.95 23.7014 135.461 23.0519 134.817 22.5235C134.195 21.9731 133.428 21.5217 132.517 21.1695C131.605 20.7952 130.583 20.4539 129.449 20.1457C128.627 19.9255 127.905 19.7274 127.282 19.5513C126.66 19.3751 126.138 19.188 125.715 18.9898C125.315 18.7697 125.004 18.5275 124.782 18.2633C124.582 17.9991 124.482 17.6688 124.482 17.2725C124.482 15.9735 125.46 15.3241 127.416 15.3241L127.446 15.3241V15.3262Z" fill="white"/>
<path d="M59.8554 15.9533C61.8514 15.9533 63.2963 16.3262 64.2865 16.853V11.0578C62.9099 10.6911 61.4162 10.5188 59.8554 10.5188C52.9799 10.5188 47.4062 15.3262 47.4062 22.4329C47.4062 29.5395 52.9799 34.3469 59.8554 34.3469C61.4162 34.3469 62.9099 34.1746 64.2865 33.8079V28.0127C63.2963 28.5395 61.8514 28.9124 59.8554 28.9124C55.6658 28.9124 52.8923 26.2083 52.8923 22.4329C52.8923 18.6574 55.6658 15.9533 59.8554 15.9533Z" fill="white"/>
<path d="M88.901 29.3927V34.1483H72.2651V10.7006H88.601V15.4562H77.7326V20.0136H87.0674V24.4059H77.7326V29.3927H88.901Z" fill="white"/>
<path d="M96.2232 34.1483V10.7006H101.691V29.3927H113.159V34.1483H96.2232Z" fill="white"/>
<path d="M156.561 28.9634C155.917 29.3376 155.128 29.5248 154.194 29.5248C153.261 29.5248 152.472 29.3376 151.827 28.9634C151.205 28.5891 150.694 28.0827 150.294 27.4442C149.894 26.8057 149.605 26.0792 149.427 25.2646C149.249 24.4499 149.16 23.5913 149.16 22.6886V10.7006H143.693V22.6886C143.693 24.2298 143.882 25.7049 144.259 27.114C144.66 28.523 145.271 29.7669 146.093 30.8458C146.938 31.9026 148.027 32.7502 149.36 33.3887C150.694 34.0272 152.305 34.3464 154.194 34.3464C156.017 34.3464 157.584 34.0492 158.895 33.4548C160.229 32.8383 161.318 32.0016 162.162 30.9448C163.029 29.888 163.662 28.6551 164.062 27.246C164.485 25.837 164.696 24.3179 164.696 22.6886V10.7006H159.228V22.6886C159.228 23.5473 159.14 24.3949 158.962 25.2315C158.806 26.0462 158.528 26.7727 158.128 27.4112C157.728 28.0497 157.206 28.5671 156.561 28.9634Z" fill="white"/>
<path d="M188.843 17.5818C185.502 15.9348 182.604 15.3262 180.855 15.3262V15.3241L180.825 15.3241C178.869 15.3241 177.891 15.9735 177.891 17.2725C177.891 17.6688 177.991 17.9991 178.191 18.2633C178.413 18.5275 178.724 18.7697 179.124 18.9898C179.547 19.188 180.069 19.3751 180.691 19.5513C181.314 19.7274 182.036 19.9255 182.858 20.1457C183.992 20.4539 185.014 20.7952 185.925 21.1695C186.837 21.5217 187.603 21.9731 188.226 22.5235C188.87 23.0519 189.359 23.7014 189.693 24.472C190.048 25.2425 190.226 26.1673 190.226 27.246C190.226 28.5671 189.97 29.6899 189.459 30.6146C188.97 31.5173 188.315 32.2548 187.492 32.8273C186.67 33.3777 185.725 33.785 184.658 34.0492C183.705 34.2657 182.428 34.5001 180.359 34.398C180.27 34.3939 180.18 34.3889 180.089 34.383C179.927 34.3731 179.76 34.3611 179.589 34.3469L179.589 34.3426C177.659 34.1561 175.377 33.5925 172.954 32.6117V27.3921L172.983 27.3327C176.324 28.9798 179.223 29.5883 180.972 29.5883V29.5904C181.093 29.5904 181.218 29.5875 181.344 29.5809C182.93 29.3843 184.358 28.7374 184.358 27.7745C184.358 27.3341 184.214 26.9708 183.925 26.6846C183.636 26.3984 183.236 26.1452 182.725 25.9251C182.214 25.6829 181.602 25.4627 180.891 25.2646C180.202 25.0664 179.447 24.8462 178.624 24.6041C177.535 24.2738 176.591 23.9216 175.79 23.5473C174.99 23.151 174.324 22.6996 173.79 22.1932C173.279 21.6869 172.89 21.1034 172.623 20.4429C172.379 19.7824 172.257 19.0118 172.257 18.1312C172.257 16.8983 172.49 15.8084 172.957 14.8617C173.423 13.915 174.057 13.1224 174.857 12.4839C175.657 11.8234 176.579 11.328 177.624 10.9978C178.65 10.6803 179.727 10.5155 180.855 10.5032V10.5021L180.889 10.5021L180.939 10.5024L180.956 10.5025L180.991 10.5024C183.149 10.5258 185.905 11.1017 188.873 12.3029V17.5225L188.843 17.5818Z" fill="white"/>
<path d="M199.387 11.0271V11.7814H197.595V17.0271H196.799V11.7814H195.016V11.0271H199.387Z" fill="white"/>
<path d="M205.853 11.0271V17.0271H205.056V12.3385L203.074 15.6042H202.97L200.988 12.3471V17.0271H200.183V11.0271H201.092L203.022 14.1985L204.944 11.0271H205.853Z" fill="white"/>
</svg>
