<svg width="200" height="44" viewBox="0 0 200 44" fill="none" xmlns="http://www.w3.org/2000/svg">
<path d="M18.4614 1.17308C20.7241 -0.0217226 23.512 -0.0217227 25.7748 1.17308L40.1341 8.75517C42.3969 9.94998 43.7908 12.1581 43.7908 14.5477V29.7119C43.7908 32.1015 42.3969 34.3095 40.1341 35.5043L25.7748 43.0864C23.512 44.2812 20.7241 44.2812 18.4614 43.0864L4.10201 35.5043C1.83924 34.3095 0.445312 32.1015 0.445312 29.7119V14.5477C0.445312 12.1581 1.83924 9.94998 4.10201 8.75518L18.4614 1.17308Z" fill="white"/>
<path fill-rule="evenodd" clip-rule="evenodd" d="M27.94 12.2929C29.7822 11.3202 32.0519 11.3202 33.8941 12.2929C35.7363 13.2656 36.8712 15.0633 36.8712 17.0088C36.8712 18.9543 35.7363 20.752 33.8941 21.7247C32.0519 22.6975 29.7822 22.6975 27.94 21.7247C26.0977 20.752 24.9629 18.9543 24.9629 17.0088C24.9629 15.0633 26.0977 13.2656 27.94 12.2929ZM32.2943 14.8271C31.442 14.3771 30.392 14.3771 29.5398 14.8271C28.6875 15.2771 28.1625 16.1088 28.1625 17.0088C28.1625 17.9088 28.6875 18.7405 29.5398 19.1905C30.392 19.6405 31.442 19.6405 32.2943 19.1905C33.1466 18.7405 33.6716 17.9088 33.6716 17.0088C33.6716 16.1088 33.1466 15.2771 32.2943 14.8271Z" fill="black"/>
<path fill-rule="evenodd" clip-rule="evenodd" d="M178.081 15.7203C180.243 15.7203 181.808 16.0932 182.881 16.62V10.8248C181.39 10.4581 179.772 10.2858 178.081 10.2858C170.634 10.2858 164.597 15.0932 164.597 22.1998C164.597 29.3064 170.634 34.1139 178.081 34.1139C179.772 34.1139 181.39 33.9415 182.881 33.5749V27.7796C181.808 28.3065 180.243 28.6794 178.081 28.6794C173.543 28.6794 170.539 25.9753 170.539 22.1998C170.539 18.4244 173.543 15.7203 178.081 15.7203ZM109.656 29.1612V33.9165C110.937 34.0491 112.121 34.0049 113.209 33.784C114.321 33.563 115.372 33.1432 116.363 32.5245C117.378 31.8838 118.175 30.8784 118.755 29.5085C119.359 28.1386 119.661 26.4704 119.661 24.504V15.5619H126.856V33.9165H132.656V10.4579H113.861V24.7028C113.861 26.5367 113.511 27.752 112.81 28.3485C112.109 28.9451 109.656 29.1612 109.656 29.1612ZM79.7242 28.8204H77.0055V10.4731H71.2055V28.8204H61.093V10.4731H55.293V33.9244H73.9242V38.3656H79.7242V28.8204ZM150.809 18.0104C153.298 18.0104 155.401 18.7837 157.117 20.3304C158.833 21.877 159.69 23.7551 159.69 25.9647C159.69 28.1742 158.833 30.0523 157.117 31.5989C155.401 33.1456 153.298 33.9189 150.809 33.9189H139.953V10.4603H145.753V18.0104H150.809ZM150.809 28.9475C151.703 28.9475 152.44 28.6603 153.02 28.0858C153.6 27.5113 153.89 26.8043 153.89 25.9647C153.89 25.125 153.6 24.418 153.02 23.8435C152.44 23.269 151.703 22.9818 150.809 22.9818H145.753V28.9475H150.809ZM103.825 33.9207V29.1651H91.7286V24.1784H101.839V19.7861H91.7286V15.2286H103.5V10.4731H85.8066V33.9207H103.825Z" fill="black"/>
<path d="M188.076 14.5857C188.076 13.7966 188.275 13.0642 188.672 12.3884C189.074 11.7126 189.627 11.1814 190.332 10.7947C191.041 10.4041 191.806 10.2087 192.626 10.2087C193.447 10.2087 194.209 10.4041 194.914 10.7947C195.619 11.1814 196.17 11.7126 196.568 12.3884C196.969 13.0642 197.17 13.7966 197.17 14.5857C197.17 15.3552 196.978 16.0759 196.593 16.7478C196.209 17.4197 195.662 17.9607 194.953 18.3708C194.248 18.7771 193.472 18.9802 192.626 18.9802C191.785 18.9802 191.009 18.7791 190.3 18.3767C189.595 17.9705 189.048 17.4314 188.659 16.7595C188.271 16.0876 188.076 15.363 188.076 14.5857ZM188.813 14.5857C188.813 15.2576 188.984 15.8806 189.326 16.4548C189.668 17.0251 190.131 17.4724 190.717 17.7966C191.306 18.1208 191.943 18.283 192.626 18.283C193.314 18.283 193.953 18.1189 194.543 17.7908C195.132 17.4587 195.594 17.0095 195.927 16.4431C196.264 15.8767 196.433 15.2576 196.433 14.5857C196.433 13.9177 196.264 13.3025 195.927 12.74C195.594 12.1736 195.132 11.7283 194.543 11.4041C193.953 11.0759 193.314 10.9119 192.626 10.9119C191.943 10.9119 191.306 11.074 190.717 11.3982C190.127 11.7185 189.661 12.1638 189.319 12.7341C188.982 13.3044 188.813 13.9216 188.813 14.5857ZM191.684 15.0251V17.0056H190.781V12.031H192.549C193.203 12.031 193.709 12.1599 194.068 12.4177C194.431 12.6716 194.613 13.0427 194.613 13.531C194.613 14.0115 194.34 14.3787 193.793 14.6326C194.314 14.8279 194.577 15.2263 194.581 15.8279V16.1853C194.581 16.5212 194.617 16.7634 194.69 16.9119V17.0056H193.761C193.701 16.865 193.671 16.615 193.671 16.2556C193.671 15.8923 193.665 15.6775 193.652 15.6111C193.583 15.2361 193.304 15.0408 192.812 15.0251H191.684ZM191.684 14.2751H192.684C192.992 14.2673 193.239 14.199 193.427 14.0701C193.615 13.9412 193.709 13.7712 193.709 13.5603C193.709 13.2751 193.626 13.074 193.459 12.9568C193.293 12.8357 192.996 12.7751 192.569 12.7751H191.684V14.2751Z" fill="black"/>
</svg>
