<svg width="130" height="28" viewBox="0 0 130 28" fill="none" xmlns="http://www.w3.org/2000/svg">
<path d="M10.5856 0.746516C11.904 -0.0138124 13.5283 -0.0138125 14.8466 0.746516L23.2129 5.57149C24.5312 6.33181 25.3434 7.73696 25.3434 9.25761V18.9076C25.3434 20.4282 24.5312 21.8334 23.2129 22.5937L14.8466 27.4187C13.5283 28.179 11.904 28.179 10.5856 27.4187L2.21938 22.5937C0.901014 21.8334 0.0888672 20.4282 0.0888672 18.9076V9.25761C0.0888672 7.73696 0.901014 6.33181 2.21938 5.57149L10.5856 0.746516Z" fill="#48C8FF"/>
<path fill-rule="evenodd" clip-rule="evenodd" d="M16.1086 7.82278C17.1819 7.20377 18.5043 7.20377 19.5776 7.82278C20.651 8.4418 21.3122 9.58578 21.3122 10.8238C21.3122 12.0618 20.651 13.2058 19.5776 13.8248C18.5043 14.4439 17.1819 14.4439 16.1086 13.8248C15.0352 13.2058 14.374 12.0618 14.374 10.8238C14.374 9.58578 15.0352 8.4418 16.1086 7.82278ZM18.6455 9.43546C18.149 9.14909 17.5372 9.14909 17.0407 9.43546C16.5441 9.72183 16.2382 10.2511 16.2382 10.8238C16.2382 11.3966 16.5441 11.9258 17.0407 12.2122C17.5372 12.4985 18.149 12.4985 18.6455 12.2122C19.1421 11.9258 19.448 11.3966 19.448 10.8238C19.448 10.2511 19.1421 9.72183 18.6455 9.43546Z" fill="black"/>
<path d="M80.4265 9.75303C81.5302 9.75303 83.3591 10.1403 85.4676 11.1884L85.4864 11.1506V7.82906C83.6134 7.06465 81.8741 6.69847 80.5126 6.68358L80.4902 6.68337C80.4688 6.68319 80.4476 6.68311 80.4265 6.68311V6.6838C79.7145 6.69163 79.0349 6.79655 78.3877 6.99857C77.7285 7.20872 77.1464 7.52396 76.6415 7.94428C76.1366 8.35059 75.7368 8.85497 75.4423 9.45742C75.1477 10.0599 75.0005 10.7534 75.0005 11.538C75.0005 12.0984 75.0776 12.5888 75.2319 13.0091C75.4002 13.4294 75.6456 13.8007 75.9682 14.1229C76.3049 14.4452 76.7256 14.7324 77.2306 14.9846C77.7355 15.2228 78.3316 15.4469 79.0189 15.6571C79.5378 15.8112 80.0147 15.9513 80.4495 16.0774C80.8983 16.2035 81.2841 16.3436 81.6066 16.4977C81.9292 16.6378 82.1817 16.799 82.364 16.9811C82.5464 17.1632 82.6376 17.3944 82.6376 17.6746C82.6376 18.2688 81.7899 18.6739 80.8259 18.812V18.8111C80.6875 18.8247 80.5493 18.8302 80.4164 18.8302V18.8289C79.3126 18.8289 77.4837 18.4416 75.3752 17.3935L75.3564 17.4313V20.7528C77.2236 21.5149 78.958 21.8812 80.3176 21.8982C81.5044 21.9387 82.257 21.7981 82.8269 21.6676C83.5001 21.4995 84.0962 21.2403 84.6152 20.89C85.1342 20.5258 85.5479 20.0564 85.8565 19.482C86.1791 18.8935 86.3404 18.179 86.3404 17.3384C86.3404 16.6519 86.2282 16.0634 86.0038 15.573C85.7934 15.0827 85.4848 14.6694 85.0781 14.3331C84.6853 13.9828 84.2014 13.6956 83.6264 13.4715C83.0513 13.2333 82.4061 13.0161 81.6908 12.82C81.1719 12.6799 80.716 12.5538 80.3233 12.4417C79.9306 12.3296 79.6009 12.2105 79.3345 12.0844C79.082 11.9443 78.8856 11.7902 78.7454 11.6221C78.6191 11.4539 78.556 11.2438 78.556 10.9916C78.556 10.165 79.1732 9.75165 80.4074 9.75165L80.4265 9.75168V9.75303Z" fill="black"/>
<path d="M37.7723 10.1521C39.0319 10.1521 39.9437 10.3894 40.5686 10.7246V7.03676C39.6998 6.80342 38.7572 6.69376 37.7723 6.69376C33.4334 6.69376 29.916 9.75303 29.916 14.2754C29.916 18.7978 33.4334 21.8571 37.7723 21.8571C38.7572 21.8571 39.6998 21.7474 40.5686 21.5141V17.8262C39.9437 18.1615 39.0319 18.3988 37.7723 18.3988C35.1283 18.3988 33.3781 16.678 33.3781 14.2754C33.3781 11.8729 35.1283 10.1521 37.7723 10.1521Z" fill="black"/>
<path d="M56.102 18.7044V21.7307H45.6037V6.80943H55.9127V9.8357H49.054V12.7359H54.9449V15.531H49.054V18.7044H56.102Z" fill="black"/>
<path d="M60.7228 21.7307V6.80943H64.1732V18.7044H71.4106V21.7307H60.7228Z" fill="black"/>
<path d="M98.8003 18.4312C98.3935 18.6694 97.8956 18.7885 97.3065 18.7885C96.7175 18.7885 96.2195 18.6694 95.8128 18.4312C95.4201 18.193 95.0975 17.8708 94.845 17.4645C94.5925 17.0582 94.4102 16.5958 94.298 16.0774C94.1858 15.559 94.1297 15.0126 94.1297 14.4382V6.80943H90.6793V14.4382C90.6793 15.4189 90.7985 16.3576 91.037 17.2543C91.2894 18.151 91.6751 18.9426 92.1941 19.6291C92.7271 20.3016 93.4143 20.841 94.2559 21.2473C95.0975 21.6536 96.1143 21.8568 97.3065 21.8568C98.4567 21.8568 99.4455 21.6676 100.273 21.2894C101.115 20.8971 101.802 20.3647 102.335 19.6921C102.882 19.0196 103.282 18.235 103.534 17.3384C103.801 16.4417 103.934 15.475 103.934 14.4382V6.80943H100.483V14.4382C100.483 14.9846 100.427 15.524 100.315 16.0564C100.217 16.5748 100.042 17.0371 99.7891 17.4434C99.5367 17.8498 99.2071 18.179 98.8003 18.4312Z" fill="black"/>
<path d="M119.172 11.1884C117.064 10.1403 115.235 9.75303 114.131 9.75303V9.75168L114.112 9.75165C112.878 9.75165 112.261 10.165 112.261 10.9916C112.261 11.2438 112.324 11.4539 112.45 11.6221C112.59 11.7902 112.787 11.9443 113.039 12.0844C113.306 12.2105 113.635 12.3296 114.028 12.4417C114.421 12.5538 114.876 12.6799 115.395 12.82C116.111 13.0161 116.756 13.2333 117.331 13.4715C117.906 13.6956 118.39 13.9828 118.783 14.3331C119.189 14.6694 119.498 15.0827 119.708 15.573C119.933 16.0634 120.045 16.6519 120.045 17.3384C120.045 18.179 119.884 18.8935 119.561 19.482C119.253 20.0564 118.839 20.5258 118.32 20.89C117.801 21.2403 117.205 21.4995 116.532 21.6676C115.93 21.8054 115.124 21.9546 113.818 21.8896C113.762 21.887 113.705 21.8838 113.648 21.8801C113.546 21.8737 113.44 21.8661 113.332 21.8571L113.333 21.8544C112.114 21.7357 110.674 21.377 109.145 20.7528V17.4313L109.164 17.3935C111.272 18.4416 113.101 18.8289 114.205 18.8289V18.8302C114.282 18.8302 114.36 18.8284 114.44 18.8242C115.441 18.6991 116.342 18.2874 116.342 17.6746C116.342 17.3944 116.251 17.1632 116.069 16.9811C115.886 16.799 115.634 16.6378 115.311 16.4977C114.989 16.3436 114.603 16.2035 114.154 16.0774C113.719 15.9513 113.242 15.8112 112.723 15.6571C112.036 15.4469 111.44 15.2228 110.935 14.9846C110.43 14.7324 110.009 14.4452 109.673 14.1229C109.35 13.8007 109.105 13.4294 108.936 13.0091C108.782 12.5888 108.705 12.0984 108.705 11.538C108.705 10.7534 108.852 10.0599 109.147 9.45742C109.441 8.85497 109.841 8.35059 110.346 7.94428C110.851 7.52396 111.433 7.20872 112.092 6.99857C112.74 6.79655 113.419 6.69163 114.131 6.6838V6.68311L114.153 6.68314L114.184 6.6833L114.195 6.68337L114.217 6.68333C115.579 6.69822 117.318 7.06465 119.191 7.82906V11.1506L119.172 11.1884Z" fill="black"/>
<path d="M125.826 7.01721V7.49721H124.695V10.8354H124.193V7.49721H123.067V7.01721H125.826Z" fill="black"/>
<path d="M129.906 7.01721V10.8354H129.404V7.85176L128.153 9.92994H128.087L126.837 7.85721V10.8354H126.329V7.01721H126.902L128.12 9.03539L129.333 7.01721H129.906Z" fill="black"/>
</svg>
