<svg width="130" height="28" viewBox="0 0 130 28" fill="none" xmlns="http://www.w3.org/2000/svg">
<path d="M11.9995 0.746516C13.4703 -0.0138124 15.2824 -0.0138125 16.7532 0.746516L26.0868 5.57149C27.5576 6.33181 28.4636 7.73696 28.4636 9.25762V18.9076C28.4636 20.4282 27.5576 21.8334 26.0868 22.5937L16.7532 27.4187C15.2824 28.179 13.4703 28.179 11.9995 27.4187L2.66592 22.5937C1.19511 21.8334 0.289062 20.4282 0.289062 18.9076V9.25762C0.289062 7.73696 1.19511 6.33182 2.66592 5.57149L11.9995 0.746516Z" fill="#48C8FF"/>
<path fill-rule="evenodd" clip-rule="evenodd" d="M18.1617 7.82278C19.3591 7.20377 20.8344 7.20377 22.0319 7.82278C23.2293 8.4418 23.967 9.58579 23.967 10.8238C23.967 12.0618 23.2293 13.2058 22.0319 13.8249C20.8344 14.4439 19.3591 14.4439 18.1617 13.8249C16.9642 13.2058 16.2266 12.0618 16.2266 10.8238C16.2266 9.58579 16.9642 8.4418 18.1617 7.82278ZM20.992 9.43546C20.438 9.14909 19.7555 9.14909 19.2015 9.43546C18.6476 9.72184 18.3063 10.2511 18.3063 10.8238C18.3063 11.3966 18.6476 11.9258 19.2015 12.2122C19.7555 12.4985 20.438 12.4985 20.992 12.2122C21.5459 11.9258 21.8872 11.3966 21.8872 10.8238C21.8872 10.2511 21.5459 9.72184 20.992 9.43546Z" fill="black"/>
<path fill-rule="evenodd" clip-rule="evenodd" d="M115.752 10.0037C117.157 10.0037 118.174 10.241 118.872 10.5763V6.88842C117.902 6.65508 116.851 6.54541 115.752 6.54541C110.911 6.54541 106.987 9.60468 106.987 14.1271C106.987 18.6495 110.911 21.7087 115.752 21.7087C116.851 21.7087 117.902 21.5991 118.872 21.3657V17.6779C118.174 18.0131 117.157 18.2504 115.752 18.2504C112.802 18.2504 110.85 16.5296 110.85 14.1271C110.85 11.7245 112.802 10.0037 115.752 10.0037ZM71.2756 18.5571V21.5832C72.1082 21.6675 72.8779 21.6394 73.5848 21.4988C74.3074 21.3582 74.9907 21.091 75.6347 20.6973C76.2945 20.2896 76.8128 19.6498 77.1898 18.7781C77.5825 17.9063 77.7789 16.8447 77.7789 15.5933V9.90294H82.4556V21.5832H86.2256V6.65494H74.0089V15.7199C74.0089 16.8869 73.7811 17.6603 73.3256 18.0399C72.87 18.4195 71.2756 18.5571 71.2756 18.5571ZM51.8198 18.3402H50.0526V6.6646H46.2826V18.3402H39.7095V6.6646H35.9395V21.5882H48.0498V24.4144H51.8198V18.3402ZM98.025 11.4611C99.643 11.4611 101.01 11.9532 102.125 12.9374C103.24 13.9217 103.798 15.1168 103.798 16.5229C103.798 17.9289 103.24 19.1241 102.125 20.1083C101.01 21.0926 99.643 21.5847 98.025 21.5847H90.9684V6.65648H94.7384V11.4611H98.025ZM98.025 18.4211C98.6062 18.4211 99.0853 18.2383 99.4623 17.8727C99.8393 17.5071 100.028 17.0572 100.028 16.5229C100.028 15.9886 99.8393 15.5386 99.4623 15.1731C99.0853 14.8075 98.6062 14.6247 98.025 14.6247H94.7384V18.4211H98.025ZM67.4856 21.5858V18.5596H59.6226V15.3862H66.1946V12.5911H59.6226V9.69088H67.2743V6.6646H55.7733V21.5858H67.4856Z" fill="black"/>
<path d="M122.25 9.28179C122.25 8.77966 122.379 8.31358 122.637 7.88353C122.898 7.45349 123.258 7.11542 123.716 6.86933C124.177 6.62075 124.674 6.49646 125.208 6.49646C125.741 6.49646 126.237 6.62075 126.695 6.86933C127.153 7.11542 127.511 7.45349 127.769 7.88353C128.031 8.31358 128.161 8.77966 128.161 9.28179C128.161 9.7715 128.036 10.2301 127.786 10.6577C127.536 11.0852 127.181 11.4295 126.72 11.6905C126.262 11.9491 125.757 12.0783 125.208 12.0783C124.661 12.0783 124.156 11.9503 123.695 11.6943C123.237 11.4357 122.882 11.0927 122.629 10.6651C122.376 10.2376 122.25 9.77647 122.25 9.28179ZM122.729 9.28179C122.729 9.70935 122.84 10.1058 123.062 10.4712C123.284 10.8342 123.586 11.1188 123.966 11.3251C124.349 11.5314 124.763 11.6346 125.208 11.6346C125.655 11.6346 126.07 11.5302 126.453 11.3214C126.836 11.1101 127.136 10.8242 127.353 10.4638C127.572 10.1033 127.682 9.70935 127.682 9.28179C127.682 8.85672 127.572 8.46521 127.353 8.10726C127.136 7.74682 126.836 7.46343 126.453 7.25711C126.07 7.04831 125.655 6.9439 125.208 6.9439C124.763 6.9439 124.349 7.04706 123.966 7.25338C123.583 7.45722 123.28 7.7406 123.058 8.10353C122.839 8.46645 122.729 8.85921 122.729 9.28179ZM124.595 9.56145V10.8217H124.008V7.65608H125.158C125.583 7.65608 125.912 7.73811 126.145 7.90218C126.381 8.06375 126.499 8.2999 126.499 8.61063C126.499 8.91638 126.321 9.15005 125.966 9.31162C126.305 9.43591 126.475 9.68946 126.478 10.0723V10.2997C126.478 10.5135 126.502 10.6676 126.549 10.7621V10.8217H125.945C125.906 10.7323 125.887 10.5732 125.887 10.3445C125.887 10.1133 125.882 9.97657 125.874 9.93432C125.83 9.69568 125.648 9.57139 125.328 9.56145H124.595ZM124.595 9.08417H125.245C125.445 9.0792 125.606 9.0357 125.728 8.95367C125.851 8.87164 125.912 8.76351 125.912 8.62927C125.912 8.44781 125.857 8.31979 125.749 8.24522C125.641 8.16816 125.448 8.12963 125.17 8.12963H124.595V9.08417Z" fill="black"/>
</svg>
