<svg width="112" height="112" viewBox="0 0 112 112" fill="none" xmlns="http://www.w3.org/2000/svg">
<path d="M38.8972 30.3133C39.6704 30.3133 40.2972 30.9401 40.2972 31.7133V35.4259H44.0103C44.7835 35.4259 45.4103 36.0527 45.4103 36.8259C45.4103 37.5991 44.7835 38.2259 44.0103 38.2259H40.2972V41.9394C40.2972 42.7126 39.6704 43.3394 38.8972 43.3394C38.124 43.3394 37.4972 42.7126 37.4972 41.9394V38.2259H33.7843C33.0111 38.2259 32.3843 37.5991 32.3843 36.8259C32.3843 36.0527 33.0111 35.4259 33.7843 35.4259H37.4972V31.7133C37.4972 30.9401 38.124 30.3133 38.8972 30.3133Z" fill="black"/>
<path fill-rule="evenodd" clip-rule="evenodd" d="M30.6763 28.6052C32.8567 26.4249 35.8138 25.2 38.8972 25.2C41.9807 25.2 44.9378 26.4249 47.1181 28.6052C49.2984 30.7855 50.5233 33.7427 50.5233 36.8261C50.5233 39.9095 49.2984 42.8667 47.1181 45.047C44.9378 47.2273 41.9807 48.4522 38.8972 48.4522C35.8138 48.4522 32.8567 47.2273 30.6763 45.047C28.496 42.8667 27.2711 39.9095 27.2711 36.8261C27.2711 33.7427 28.496 30.7855 30.6763 28.6052ZM38.8972 28C36.5564 28 34.3115 28.9299 32.6562 30.5851C31.001 32.2403 30.0711 34.4853 30.0711 36.8261C30.0711 39.1669 31.001 41.4119 32.6562 43.0671C34.3115 44.7223 36.5564 45.6522 38.8972 45.6522C41.2381 45.6522 43.483 44.7223 45.1382 43.0671C46.7934 41.4119 47.7233 39.1669 47.7233 36.8261C47.7233 34.4853 46.7934 32.2403 45.1382 30.5851C43.483 28.9299 41.2381 28 38.8972 28Z" fill="black"/>
<path d="M27.2711 59.835C27.2711 59.0618 27.8979 58.435 28.6711 58.435H49.1233C49.8965 58.435 50.5233 59.0618 50.5233 59.835C50.5233 60.6082 49.8965 61.235 49.1233 61.235H28.6711C27.8979 61.235 27.2711 60.6082 27.2711 59.835Z" fill="black"/>
<path d="M28.6711 50.765C27.8979 50.765 27.2711 51.3919 27.2711 52.165C27.2711 52.9382 27.8979 53.565 28.6711 53.565H49.1233C49.8965 53.565 50.5233 52.9382 50.5233 52.165C50.5233 51.3919 49.8965 50.765 49.1233 50.765H28.6711Z" fill="black"/>
<path d="M27.2711 67.5042C27.2711 66.731 27.8979 66.1042 28.6711 66.1042H38.8972C39.6704 66.1042 40.2972 66.731 40.2972 67.5042C40.2972 68.2774 39.6704 68.9042 38.8972 68.9042H28.6711C27.8979 68.9042 27.2711 68.2774 27.2711 67.5042Z" fill="black"/>
<path d="M28.6711 73.7741C27.8979 73.7741 27.2711 74.4009 27.2711 75.1741C27.2711 75.9473 27.8979 76.5741 28.6711 76.5741H38.8972C39.6704 76.5741 40.2972 75.9473 40.2972 75.1741C40.2972 74.4009 39.6704 73.7741 38.8972 73.7741H28.6711Z" fill="black"/>
<path d="M47.7232 75.1741C47.7232 74.4009 48.35 73.7741 49.1232 73.7741H51.6798C52.453 73.7741 53.0798 74.4009 53.0798 75.1741C53.0798 75.9473 52.453 76.5741 51.6798 76.5741H49.1232C48.35 76.5741 47.7232 75.9473 47.7232 75.1741Z" fill="black"/>
<path d="M49.1232 68.6608C48.35 68.6608 47.7232 69.2877 47.7232 70.0608C47.7232 70.834 48.35 71.4608 49.1232 71.4608H51.6798C52.453 71.4608 53.0798 70.834 53.0798 70.0608C53.0798 69.2877 52.453 68.6608 51.6798 68.6608H49.1232Z" fill="black"/>
<path d="M55.3928 75.1741C55.3928 74.4009 56.0196 73.7741 56.7928 73.7741H59.3493C60.1225 73.7741 60.7493 74.4009 60.7493 75.1741C60.7493 75.9473 60.1225 76.5741 59.3493 76.5741H56.7928C56.0196 76.5741 55.3928 75.9473 55.3928 75.1741Z" fill="black"/>
<path d="M56.7928 68.6608C56.0196 68.6608 55.3928 69.2877 55.3928 70.0608C55.3928 70.834 56.0196 71.4608 56.7928 71.4608H59.3493C60.1225 71.4608 60.7493 70.834 60.7493 70.0608C60.7493 69.2877 60.1225 68.6608 59.3493 68.6608H56.7928Z" fill="black"/>
<path d="M63.0624 75.1741C63.0624 74.4009 63.6892 73.7741 64.4624 73.7741H67.0189C67.7921 73.7741 68.4189 74.4009 68.4189 75.1741C68.4189 75.9473 67.7921 76.5741 67.0189 76.5741H64.4624C63.6892 76.5741 63.0624 75.9473 63.0624 75.1741Z" fill="black"/>
<path d="M64.4624 68.6608C63.6892 68.6608 63.0624 69.2877 63.0624 70.0608C63.0624 70.834 63.6892 71.4608 64.4624 71.4608H67.0189C67.7921 71.4608 68.4189 70.834 68.4189 70.0608C68.4189 69.2877 67.7921 68.6608 67.0189 68.6608H64.4624Z" fill="black"/>
<path d="M70.732 75.1741C70.732 74.4009 71.3588 73.7741 72.132 73.7741H74.6885C75.4617 73.7741 76.0885 74.4009 76.0885 75.1741C76.0885 75.9473 75.4617 76.5741 74.6885 76.5741H72.132C71.3588 76.5741 70.732 75.9473 70.732 75.1741Z" fill="black"/>
<path d="M72.132 68.6608C71.3588 68.6608 70.732 69.2877 70.732 70.0608C70.732 70.834 71.3588 71.4608 72.132 71.4608H74.6885C75.4617 71.4608 76.0885 70.834 76.0885 70.0608C76.0885 69.2877 75.4617 68.6608 74.6885 68.6608H72.132Z" fill="black"/>
<path fill-rule="evenodd" clip-rule="evenodd" d="M43.7691 64.7064C44.5111 63.9644 45.5175 63.5476 46.5668 63.5476H77.2451C78.2944 63.5476 79.3008 63.9644 80.0428 64.7064C80.7848 65.4484 81.2016 66.4548 81.2016 67.5041V84.1215C81.2016 84.8318 80.9195 85.513 80.4172 86.0153C79.9149 86.5176 79.2337 86.7997 78.5234 86.7997H64.4703L64.4625 86.7998H59.3495L59.3416 86.7997H45.2886C44.5783 86.7997 43.897 86.5176 43.3947 86.0153C42.8925 85.513 42.6103 84.8318 42.6103 84.1215V67.5041C42.6103 66.4548 43.0272 65.4484 43.7691 64.7064ZM60.7495 83.9997H63.0625V81.6867H60.7495V83.9997ZM65.8625 83.9997V80.2867C65.8625 79.5135 65.2357 78.8867 64.4625 78.8867H59.3495C58.5763 78.8867 57.9495 79.5135 57.9495 80.2867V83.9997H45.4103V67.5041C45.4103 67.1974 45.5322 66.9032 45.749 66.6863C45.9659 66.4694 46.2601 66.3476 46.5668 66.3476H77.2451C77.5518 66.3476 77.846 66.4694 78.0629 66.6863C78.2798 66.9032 78.4016 67.1974 78.4016 67.5041V83.9997H65.8625Z" fill="black"/>
<path d="M23.5581 39.2609C22.5087 39.2609 21.5024 39.6777 20.7604 40.4197C20.0184 41.1617 19.6016 42.168 19.6016 43.2174V84.1217C19.6016 84.832 19.8837 85.5132 20.386 86.0155C20.8883 86.5178 21.5695 86.8 22.2798 86.8H38.8972C39.6704 86.8 40.2972 86.1732 40.2972 85.4C40.2972 84.6268 39.6704 84 38.8972 84H22.4016V43.2174C22.4016 42.9106 22.5234 42.6165 22.7403 42.3996C22.9572 42.1827 23.2514 42.0609 23.5581 42.0609C24.3313 42.0609 24.9581 41.434 24.9581 40.6609C24.9581 39.8877 24.3313 39.2609 23.5581 39.2609Z" fill="black"/>
<path d="M52.8364 40.6609C52.8364 39.8877 53.4632 39.2609 54.2364 39.2609C55.2857 39.2609 56.292 39.6777 57.034 40.4197C57.776 41.1617 58.1929 42.168 58.1929 43.2174V59.8348C58.1929 60.608 57.5661 61.2348 56.7929 61.2348C56.0197 61.2348 55.3929 60.608 55.3929 59.8348V43.2174C55.3929 42.9106 55.271 42.6165 55.0541 42.3996C54.8372 42.1827 54.5431 42.0609 54.2364 42.0609C53.4632 42.0609 52.8364 41.434 52.8364 40.6609Z" fill="black"/>
<path d="M89.0997 65.3532C91.1629 64.0822 93.6387 64.0822 95.7018 65.3532L108.7 73.0846C110.763 74.3555 112.001 76.5796 112.001 79.0156V94.5844C112.001 97.0203 110.763 99.3503 108.7 100.515L95.7018 108.247C93.6387 109.518 91.1629 109.518 89.0997 108.247L76.1018 100.515C74.0387 99.2444 72.8008 97.0203 72.8008 94.5844V79.0156C72.8008 76.5796 74.0387 74.2496 76.1018 73.0846L89.0997 65.3532Z" fill="#00B2FF"/>
<path d="M89.0997 65.3532C91.1629 64.0822 93.6387 64.0822 95.7018 65.3532L108.7 73.0846C110.763 74.3555 112.001 76.5796 112.001 79.0156V94.5844C112.001 97.0203 110.763 99.3503 108.7 100.515L95.7018 108.247C93.6387 109.518 91.1629 109.518 89.0997 108.247L76.1018 100.515C74.0387 99.2444 72.8008 97.0203 72.8008 94.5844V79.0156C72.8008 76.5796 74.0387 74.2496 76.1018 73.0846L89.0997 65.3532Z" fill="url(#paint0_linear)"/>
<path fill-rule="evenodd" clip-rule="evenodd" d="M103.207 80.2256C103.745 80.7808 103.731 81.6672 103.176 82.2053L89.2016 95.7497L83.0272 89.7653C82.472 89.2272 82.4581 88.3408 82.9963 87.7856C83.5344 87.2304 84.4207 87.2166 84.9759 87.7547L89.2016 91.8503L101.227 80.1947C101.782 79.6566 102.669 79.6704 103.207 80.2256Z" fill="white"/>
<defs>
<linearGradient id="paint0_linear" x1="72.804" y1="64.3323" x2="113.17" y2="108.126" gradientUnits="userSpaceOnUse">
<stop stop-color="#2896F5" stop-opacity="0"/>
<stop offset="1" stop-color="#2896F5"/>
</linearGradient>
</defs>
</svg>
