<svg width="1563" height="427" viewBox="0 0 1563 427" fill="none" xmlns="http://www.w3.org/2000/svg">
<g clip-path="url(#clip0)">
<path opacity="0.4" d="M737.463 331.868L691.869 409.539" stroke="white"/>
<circle cx="737.669" cy="331.734" r="1.90676" transform="rotate(-180 737.669 331.734)" fill="white"/>
<circle cx="691.816" cy="409.381" r="2.38346" transform="rotate(-180 691.816 409.381)" fill="white"/>
<path opacity="0.7" d="M156.652 326.669L57.4205 343.249" stroke="white"/>
<path opacity="0.5" d="M157.422 327.231L94.1893 442.803" stroke="white"/>
<path opacity="0.2" d="M57.8549 342.892L94.1896 442.803" stroke="white"/>
<circle cx="157.986" cy="326.461" r="3.81353" transform="rotate(36.1693 157.986 326.461)" fill="white"/>
<circle cx="57.9061" cy="342.885" r="2.38346" transform="rotate(36.1693 57.9061 342.885)" fill="white"/>
<path opacity="0.6" d="M483.897 31.7012L445.775 84.7878" stroke="white"/>
<circle cx="483.06" cy="31.8692" r="2.86015" transform="rotate(6.8752 483.06 31.8692)" fill="white"/>
<circle cx="445.358" cy="84.2575" r="1.43007" transform="rotate(6.8752 445.358 84.2575)" fill="white"/>
<path opacity="0.5" d="M1254.88 21.3098L1299.69 78.5139" stroke="white"/>
<circle cx="1255.84" cy="21.3096" r="3.81353" fill="white"/>
<circle cx="1300.17" cy="78.9905" r="1.43007" fill="white"/>
<path opacity="0.5" d="M877.467 76.7056L950.879 124.376" stroke="white"/>
<path opacity="0.3" d="M877.466 76.7056L866.979 29.0355" stroke="white"/>
<circle cx="866.502" cy="28.5586" r="1.43007" fill="white"/>
<circle cx="876.989" cy="77.1822" r="2.38346" fill="white"/>
<circle cx="951.297" cy="124.887" r="1.43007" fill="white"/>
<circle cx="952.309" cy="219.239" r="1.43007" fill="white"/>
<path opacity="0.5" d="M1513.91 317.298L1435.44 356.075" stroke="white"/>
<path opacity="0.3" d="M1513.91 317.298L1560.25 332.623" stroke="white"/>
<circle cx="1560.91" cy="332.456" r="1.43007" transform="rotate(120.706 1560.91 332.456)" fill="white"/>
<circle cx="1513.74" cy="316.644" r="2.38346" transform="rotate(120.706 1513.74 316.644)" fill="white"/>
<circle cx="1434.78" cy="356.174" r="1.43007" transform="rotate(120.706 1434.78 356.174)" fill="white"/>
<circle cx="1353.14" cy="308.865" r="1.43007" transform="rotate(120.706 1353.14 308.865)" fill="white"/>
</g>
<defs>
<clipPath id="clip0">
<rect width="1563" height="427" fill="white"/>
</clipPath>
</defs>
</svg>
