<svg width="263" height="286" viewBox="0 0 263 286" fill="none" xmlns="http://www.w3.org/2000/svg">
<g filter="url(#filter0_dd)">
<path d="M117.749 43.8136C126.258 38.7288 136.742 38.7288 145.251 43.8136L199.249 76.0811C207.758 81.1659 213 90.5629 213 100.732V165.268C213 175.437 207.758 184.834 199.249 189.919L145.251 222.186C136.742 227.271 126.258 227.271 117.749 222.186L63.751 189.919C55.2418 184.834 50 175.437 50 165.268V100.732C50 90.5629 55.2418 81.1659 63.751 76.0811L117.749 43.8136Z" fill="#2896F5"/>
<path d="M117.749 43.8136C126.258 38.7288 136.742 38.7288 145.251 43.8136L199.249 76.0811C207.758 81.1659 213 90.5629 213 100.732V165.268C213 175.437 207.758 184.834 199.249 189.919L145.251 222.186C136.742 227.271 126.258 227.271 117.749 222.186L63.751 189.919C55.2418 184.834 50 175.437 50 165.268V100.732C50 90.5629 55.2418 81.1659 63.751 76.0811L117.749 43.8136Z" fill="#00B2FF"/>
<path d="M117.749 43.8136C126.258 38.7288 136.742 38.7288 145.251 43.8136L199.249 76.0811C207.758 81.1659 213 90.5629 213 100.732V165.268C213 175.437 207.758 184.834 199.249 189.919L145.251 222.186C136.742 227.271 126.258 227.271 117.749 222.186L63.751 189.919C55.2418 184.834 50 175.437 50 165.268V100.732C50 90.5629 55.2418 81.1659 63.751 76.0811L117.749 43.8136Z" fill="url(#paint0_linear)"/>
</g>
<g clip-path="url(#clip0)">
<path d="M171.434 104.263C160.654 93.4836 143.495 92.8812 131.999 102.45C120.504 92.881 103.345 93.4834 92.5653 104.263C81.1449 115.684 81.1449 134.267 92.5653 145.687L98.8062 151.928C101.004 154.126 103.928 155.337 107.037 155.337C107.331 155.337 107.624 155.323 107.915 155.301C107.893 155.592 107.879 155.885 107.879 156.18C107.879 159.289 109.09 162.212 111.288 164.41C113.487 166.608 116.409 167.819 119.518 167.819C119.813 167.819 120.106 167.805 120.397 167.783C120.375 168.074 120.361 168.367 120.361 168.662C120.361 171.77 121.572 174.693 123.77 176.892C125.969 179.09 128.892 180.301 132.001 180.301C135.11 180.301 138.032 179.09 140.231 176.892C142.429 174.694 143.64 171.771 143.64 168.662C143.64 168.367 143.626 168.074 143.604 167.783C143.895 167.804 144.188 167.819 144.483 167.819C147.591 167.819 150.515 166.608 152.713 164.409C154.912 162.211 156.122 159.289 156.122 156.18C156.122 155.883 156.108 155.588 156.086 155.295C156.378 155.317 156.671 155.331 156.965 155.331C159.945 155.331 162.926 154.197 165.195 151.928L171.435 145.687C182.855 134.267 182.855 115.684 171.434 104.263ZM111.288 147.949C110.152 149.085 108.642 149.711 107.036 149.711C105.43 149.711 103.92 149.085 102.785 147.95C101.649 146.814 101.024 145.304 101.024 143.698C101.024 142.092 101.649 140.582 102.785 139.446C103.92 138.311 105.43 137.685 107.036 137.685C108.642 137.685 110.152 138.311 111.288 139.446C113.632 141.791 113.632 145.605 111.288 147.949ZM123.77 160.431C122.634 161.567 121.124 162.192 119.518 162.192C117.912 162.192 116.403 161.567 115.267 160.431C114.131 159.296 113.505 157.786 113.505 156.18C113.505 154.574 114.131 153.064 115.267 151.928C116.403 150.792 117.912 150.167 119.518 150.167C121.124 150.167 122.634 150.792 123.77 151.928C124.905 153.064 125.531 154.574 125.531 156.18C125.531 157.786 124.906 159.296 123.77 160.431ZM136.251 172.913C135.116 174.049 133.606 174.674 132 174.674C130.394 174.674 128.884 174.049 127.748 172.913C126.613 171.777 125.987 170.268 125.987 168.661C125.987 167.055 126.612 165.546 127.748 164.41C128.884 163.274 130.394 162.649 132 162.649C133.606 162.649 135.116 163.274 136.251 164.41C137.387 165.546 138.013 167.056 138.013 168.661C138.013 170.268 137.387 171.777 136.251 172.913ZM161.215 147.949C158.871 150.294 155.057 150.294 152.712 147.95L146.623 141.86C146.073 141.31 145.353 141.036 144.633 141.036C143.913 141.036 143.193 141.31 142.644 141.86C141.545 142.958 141.545 144.739 142.644 145.838L148.734 151.928C149.87 153.064 150.495 154.574 150.495 156.18C150.495 157.785 149.87 159.295 148.734 160.431C147.598 161.566 146.088 162.192 144.482 162.192C142.876 162.192 141.366 161.566 140.231 160.431C140.222 160.422 140.213 160.415 140.205 160.407C138.009 158.225 135.098 157.022 132 157.022C131.705 157.022 131.412 157.037 131.121 157.058C131.143 156.767 131.157 156.475 131.157 156.18C131.157 153.071 129.947 150.148 127.748 147.949C125.55 145.751 122.627 144.54 119.518 144.54C119.221 144.54 118.926 144.555 118.634 144.577C118.879 141.31 117.759 137.96 115.266 135.467C113.068 133.269 110.145 132.058 107.036 132.058C103.927 132.058 101.004 133.269 98.8057 135.468C97.2914 136.982 96.2459 138.84 95.7417 140.866C87.3256 131.59 87.5923 117.193 96.5433 108.242C105.097 99.6885 118.623 99.0658 127.902 106.371L123.769 110.504C119.231 115.042 119.231 122.426 123.769 126.964C128.308 131.502 135.692 131.502 140.23 126.964L144.481 122.713L154.974 133.205C154.977 133.208 154.98 133.21 154.983 133.214L161.215 139.446C162.351 140.582 162.976 142.091 162.976 143.697C162.976 145.303 162.35 146.813 161.215 147.949ZM168.258 140.866C167.753 138.84 166.708 136.982 165.194 135.468L158.953 129.227C158.95 129.224 158.947 129.221 158.944 129.218L146.471 116.746C145.943 116.218 145.227 115.921 144.481 115.921C143.735 115.921 143.02 116.218 142.492 116.746L136.252 122.986C133.908 125.33 130.093 125.331 127.748 122.986C125.404 120.642 125.404 116.827 127.748 114.483L133.985 108.246C133.986 108.244 133.988 108.244 133.989 108.242C133.99 108.241 133.991 108.24 133.992 108.239C143.219 99.0154 158.23 99.016 167.456 108.242C176.407 117.193 176.674 131.59 168.258 140.866Z" fill="white"/>
</g>
<defs>
<filter id="filter0_dd" x="0" y="0" width="263" height="286" filterUnits="userSpaceOnUse" color-interpolation-filters="sRGB">
<feFlood flood-opacity="0" result="BackgroundImageFix"/>
<feColorMatrix in="SourceAlpha" type="matrix" values="0 0 0 0 0 0 0 0 0 0 0 0 0 0 0 0 0 0 127 0"/>
<feOffset dy="10"/>
<feGaussianBlur stdDeviation="25"/>
<feColorMatrix type="matrix" values="0 0 0 0 0 0 0 0 0 0 0 0 0 0 0 0 0 0 0.06 0"/>
<feBlend mode="normal" in2="BackgroundImageFix" result="effect1_dropShadow"/>
<feColorMatrix in="SourceAlpha" type="matrix" values="0 0 0 0 0 0 0 0 0 0 0 0 0 0 0 0 0 0 127 0"/>
<feOffset dy="3"/>
<feGaussianBlur stdDeviation="10"/>
<feColorMatrix type="matrix" values="0 0 0 0 0 0 0 0 0 0 0 0 0 0 0 0 0 0 0.04 0"/>
<feBlend mode="normal" in2="effect1_dropShadow" result="effect2_dropShadow"/>
<feBlend mode="normal" in="SourceGraphic" in2="effect2_dropShadow" result="shape"/>
</filter>
<linearGradient id="paint0_linear" x1="50.0133" y1="39.7191" x2="217.582" y2="221.799" gradientUnits="userSpaceOnUse">
<stop stop-color="#2896F5" stop-opacity="0"/>
<stop offset="1" stop-color="#2896F5"/>
</linearGradient>
<clipPath id="clip0">
<rect width="96" height="96" fill="white" transform="translate(84 90)"/>
</clipPath>
</defs>
</svg>
