<svg width="72" height="72" viewBox="0 0 72 72" fill="none" xmlns="http://www.w3.org/2000/svg">
<path d="M69.8906 39.7467H57.6683V23.3888C57.6683 22.2238 56.7239 21.2794 55.559 21.2794H51.0763V15.0764C51.0763 6.76322 44.3132 0 36 0C27.6868 0 20.9236 6.76322 20.9236 15.0764V21.2795H16.4409C15.276 21.2795 14.3315 22.224 14.3315 23.3889V39.7467H2.10938C0.944437 39.7467 0 40.6911 0 41.856V69.8906C0 71.0556 0.944437 72 2.10938 72H69.8906C71.0556 72 72 71.0556 72 69.8906V41.856C72 40.691 71.0556 39.7467 69.8906 39.7467ZM25.1423 15.0764C25.1423 9.08944 30.0132 4.21875 36 4.21875C41.9868 4.21875 46.8577 9.08944 46.8577 15.0764V21.2795H25.1423V15.0764ZM4.21875 43.9654H14.3317V67.7812H4.21875V43.9654ZM18.5504 25.4981H53.4497V67.7812H48.1641V57.1866C48.1641 56.0216 47.2196 55.0772 46.0547 55.0772H25.9453C24.7804 55.0772 23.8359 56.0216 23.8359 57.1866V67.7812H18.5504V25.4981ZM38.1094 59.2959H43.9453V67.7812H38.1094V59.2959ZM33.8906 67.7812H28.0547V59.2959H33.8906V67.7812ZM67.7812 67.7812H57.6683V43.9654H67.7812V67.7812Z" fill="black"/>
</svg>
