<svg width="148" height="68" viewBox="0 0 148 68" fill="none" xmlns="http://www.w3.org/2000/svg">
<g filter="url(#filter0_d)">
<path d="M12 31C12 18.8497 21.8497 9 34 9H114C126.15 9 136 18.8497 136 31C136 43.1503 126.15 53 114 53H34C21.8497 53 12 43.1503 12 31Z" fill="white"/>
<path d="M40.2994 21.5007C41.2368 20.9557 42.3917 20.9557 43.3291 21.5007L49.2777 24.9589C50.2151 25.5038 50.7925 26.5109 50.7925 27.6008V34.5172C50.7925 35.607 50.2151 36.6141 49.2777 37.1591L43.3291 40.6173C42.3917 41.1622 41.2368 41.1622 40.2994 40.6173L34.3508 37.1591C33.4134 36.6141 32.8359 35.607 32.8359 34.5172V27.6008C32.8359 26.5109 33.4134 25.5038 34.3508 24.9589L40.2994 21.5007Z" fill="#48C8FF"/>
<path fill-rule="evenodd" clip-rule="evenodd" d="M44.2274 26.5723C44.9906 26.1286 45.9309 26.1286 46.694 26.5723C47.4572 27.016 47.9274 27.8359 47.9274 28.7232C47.9274 29.6106 47.4572 30.4305 46.694 30.8741C45.9309 31.3178 44.9906 31.3178 44.2274 30.8741C43.4643 30.4305 42.9941 29.6106 42.9941 28.7232C42.9941 27.8359 43.4643 27.016 44.2274 26.5723ZM46.0313 27.7282C45.6782 27.5229 45.2433 27.5229 44.8902 27.7282C44.5371 27.9334 44.3196 28.3127 44.3196 28.7232C44.3196 29.1337 44.5371 29.513 44.8902 29.7183C45.2433 29.9235 45.6782 29.9235 46.0313 29.7183C46.3844 29.513 46.6019 29.1337 46.6019 28.7232C46.6019 28.3127 46.3844 27.9334 46.0313 27.7282Z" fill="black"/>
<path fill-rule="evenodd" clip-rule="evenodd" d="M106.424 28.1355C107.319 28.1355 107.968 28.3056 108.412 28.5459V25.9027C107.794 25.7355 107.124 25.6569 106.424 25.6569C103.339 25.6569 100.838 27.8495 100.838 31.0908C100.838 34.3321 103.339 36.5248 106.424 36.5248C107.124 36.5248 107.794 36.4462 108.412 36.279V33.6358C107.968 33.8761 107.319 34.0461 106.424 34.0461C104.544 34.0461 103.299 32.8128 103.299 31.0908C103.299 29.3689 104.544 28.1355 106.424 28.1355ZM78.0776 34.2659V36.4348C78.6082 36.4953 79.0988 36.4751 79.5493 36.3743C80.0098 36.2735 80.4453 36.0821 80.8558 35.7999C81.2762 35.5076 81.6066 35.0491 81.8469 34.4243C82.0972 33.7995 82.2223 33.0386 82.2223 32.1417V28.0633H85.203V36.4348H87.6057V25.7354H79.8196V32.2324C79.8196 33.0689 79.6744 33.6231 79.3841 33.8952C79.0938 34.1673 78.0776 34.2659 78.0776 34.2659ZM65.6777 34.1105H64.5514V25.7423H62.1487V34.1105H57.9594V25.7423H55.5566V36.4384H63.2749V38.464H65.6777V34.1105ZM95.1259 29.18C96.157 29.18 97.028 29.5327 97.7388 30.2382C98.4497 30.9436 98.8051 31.8002 98.8051 32.808C98.8051 33.8157 98.4497 34.6723 97.7388 35.3777C97.028 36.0832 96.157 36.4359 95.1259 36.4359H90.6285V25.7365H93.0312V29.18H95.1259ZM95.1259 34.1684C95.4963 34.1684 95.8016 34.0374 96.0419 33.7754C96.2822 33.5134 96.4023 33.1909 96.4023 32.808C96.4023 32.425 96.2822 32.1025 96.0419 31.8405C95.8016 31.5785 95.4963 31.4475 95.1259 31.4475H93.0312V34.1684H95.1259ZM75.662 36.4367V34.2677H70.6507V31.9933H74.8393V29.9899H70.6507V27.9113H75.5274V25.7423H68.1974V36.4367H75.662Z" fill="black"/>
<path d="M112.537 25.7345V26.0785H111.734V28.4711H111.376V26.0785H110.576V25.7345H112.537Z" fill="black"/>
<path d="M115.439 25.7345V28.4711H115.081V26.3326L114.192 27.8221H114.145L113.256 26.3365V28.4711H112.895V25.7345H113.303L114.169 27.181L115.031 25.7345H115.439Z" fill="black"/>
</g>
<defs>
<filter id="filter0_d" x="0.532407" y="0.399305" width="146.935" height="66.9352" filterUnits="userSpaceOnUse" color-interpolation-filters="sRGB">
<feFlood flood-opacity="0" result="BackgroundImageFix"/>
<feColorMatrix in="SourceAlpha" type="matrix" values="0 0 0 0 0 0 0 0 0 0 0 0 0 0 0 0 0 0 127 0"/>
<feOffset dy="2.8669"/>
<feGaussianBlur stdDeviation="5.7338"/>
<feColorMatrix type="matrix" values="0 0 0 0 0 0 0 0 0 0 0 0 0 0 0 0 0 0 0.1 0"/>
<feBlend mode="normal" in2="BackgroundImageFix" result="effect1_dropShadow"/>
<feBlend mode="normal" in="SourceGraphic" in2="effect1_dropShadow" result="shape"/>
</filter>
</defs>
</svg>
