<svg width="20" height="19" viewBox="0 0 20 19" fill="none" xmlns="http://www.w3.org/2000/svg">
<path d="M5.34996 1.4375C5.0188 1.4375 4.69145 1.55797 4.41919 1.77354L4.38119 1.79446L4.36093 1.81348L2.38225 3.85507L2.40125 3.87409C1.7915 4.43965 1.60155 5.28418 1.86685 6.01459C1.86811 6.01776 1.86558 6.0298 1.86685 6.03361C2.40315 7.57304 3.77714 10.5416 6.45738 13.2261C9.14839 15.9207 12.1541 17.2395 13.6402 17.8228H13.6591C14.0319 17.9459 14.43 17.9704 14.815 17.894C15.1999 17.8175 15.5586 17.6428 15.8563 17.3866L15.8753 17.3676L15.8955 17.3473L17.8558 15.3862C18.3814 14.86 18.3814 13.9508 17.8558 13.4245L15.2839 10.8491L15.2636 10.8091C14.7381 10.2829 13.8105 10.2829 13.2849 10.8091L13.2659 10.8294L12.0186 12.0785C11.0681 11.6212 10.194 11.0196 9.42699 10.2949C8.39111 9.30395 7.86051 8.16459 7.66675 7.71824L8.93184 6.45017C9.46498 5.91631 9.47321 5.03247 8.91285 4.50876L8.93184 4.48847L8.87296 4.4295L6.34025 1.81348L6.31935 1.79446L6.28009 1.77354C6.01662 1.55951 5.6892 1.44108 5.34996 1.4375Z" stroke="white" stroke-width="2"/>
</svg>
