<svg width="193" height="118" viewBox="0 0 193 118" fill="none" xmlns="http://www.w3.org/2000/svg">
<path d="M79.4642 69.8174C77.9481 68.9367 76.0812 68.9367 74.5651 69.8174L62.6191 76.7566C61.1022 77.6378 60.1642 79.2689 60.1642 81.0379V94.9163C60.1642 96.6853 61.1022 98.3164 62.6191 99.1975L74.5651 106.137C76.0812 107.017 77.9481 107.017 79.4642 106.137L91.4102 99.1975C92.9271 98.3164 93.8652 96.6853 93.8652 94.9163V81.0379C93.8652 79.2689 92.9271 77.6378 91.4102 76.7566L79.4642 69.8174Z" stroke="#00B2FF" stroke-width="2.35949"/>
<path d="M59.767 35.8782C58.2509 34.9975 56.384 34.9975 54.8679 35.8782L42.9219 42.8174C41.405 43.6986 40.4669 45.3296 40.4669 47.0986V60.9771C40.4669 62.7461 41.405 64.3772 42.9219 65.2583L54.8679 72.1975C56.384 73.0782 58.2509 73.0782 59.767 72.1975L71.713 65.2583C73.2299 64.3772 74.1679 62.7461 74.1679 60.9771V47.0986C74.1679 45.3296 73.2299 43.6986 71.713 42.8174L59.767 35.8782Z" stroke="#00B2FF" stroke-width="2.35949"/>
<path d="M20.6752 103.757C19.1591 102.876 17.2922 102.876 15.7761 103.757L3.83009 110.696C2.31317 111.577 1.37513 113.208 1.37513 114.977V128.856C1.37513 130.625 2.31317 132.256 3.83008 133.137L15.7761 140.076C17.2922 140.957 19.1591 140.957 20.6752 140.076L32.6212 133.137C34.1381 132.256 35.0761 130.625 35.0761 128.856V114.977C35.0761 113.208 34.1381 111.577 32.6212 110.696L20.6752 103.757Z" stroke="#006CCB" stroke-width="2.35949"/>
<path d="M59.767 103.757C58.2509 102.876 56.384 102.876 54.8679 103.757L42.9219 110.696C41.405 111.577 40.4669 113.208 40.4669 114.977V128.856C40.4669 130.625 41.405 132.256 42.9219 133.137L54.8679 140.076C56.384 140.957 58.2509 140.957 59.767 140.076L71.713 133.137C73.2299 132.256 74.1679 130.625 74.1679 128.856V114.977C74.1679 113.208 73.2299 111.577 71.713 110.696L59.767 103.757Z" stroke="#00B2FF" stroke-width="2.35949"/>
<path opacity="0.5" d="M98.8568 103.757C97.3407 102.876 95.4738 102.876 93.9577 103.757L82.0117 110.696C80.4948 111.577 79.5568 113.208 79.5568 114.977V128.856C79.5568 130.625 80.4948 132.256 82.0117 133.137L93.9577 140.076C95.4738 140.957 97.3407 140.957 98.8568 140.076L110.803 133.137C112.32 132.256 113.258 130.625 113.258 128.856V114.977C113.258 113.208 112.32 111.577 110.803 110.696L98.8568 103.757Z" stroke="#006CCB" stroke-width="2.35949"/>
<path opacity="0.2" d="M118.554 69.8174C117.038 68.9367 115.171 68.9367 113.655 69.8174L101.709 76.7566C100.192 77.6378 99.254 79.2689 99.254 81.0379V94.9163C99.254 96.6853 100.192 98.3164 101.709 99.1975L113.655 106.137C115.171 107.017 117.038 107.017 118.554 106.137L130.5 99.1975C132.017 98.3164 132.955 96.6853 132.955 94.9163V81.0379C132.955 79.2689 132.017 77.6378 130.5 76.7566L118.554 69.8174Z" stroke="#006CCB" stroke-width="2.35949"/>
<path opacity="0.2" d="M40.3744 69.8174C38.8583 68.9367 36.9914 68.9367 35.4753 69.8174L23.5293 76.7566C22.0124 77.6378 21.0744 79.2689 21.0744 81.0379V94.9163C21.0744 96.6853 22.0124 98.3164 23.5293 99.1975L35.4753 106.137C36.9914 107.017 38.8583 107.017 40.3744 106.137L52.3204 99.1975C53.8373 98.3164 54.7753 96.6853 54.7753 94.9163V81.0379C54.7753 79.2689 53.8373 77.6378 52.3204 76.7566L40.3744 69.8174Z" stroke="#006CCB" stroke-width="2.35949"/>
<path opacity="0.1" d="M1.87517 68.7973C-0.00730324 67.7038 -2.3266 67.7038 -4.20908 68.7973L-16.1551 75.7365C-18.0375 76.83 -19.1972 78.8509 -19.1972 81.0379V94.9163C-19.1972 97.1033 -18.0375 99.1242 -16.1551 100.218L-4.20908 107.157C-2.3266 108.25 -0.00730324 108.25 1.87517 107.157L13.8212 100.218C15.7036 99.1242 16.8633 97.1033 16.8633 94.9163V81.0379C16.8633 78.8509 15.7036 76.83 13.8212 75.7365L1.87517 68.7973Z" fill="#48C8FF"/>
<path opacity="0.1" d="M20.6752 35.8784C19.1591 34.9977 17.2922 34.9977 15.7761 35.8784L3.83009 42.8176C2.31317 43.6987 1.37513 45.3298 1.37513 47.0988V60.9773C1.37513 62.7463 2.31317 64.3773 3.83008 65.2585L15.7761 72.1977C17.2922 73.0784 19.1591 73.0784 20.6752 72.1977L32.6212 65.2585C34.1381 64.3773 35.0761 62.7463 35.0761 60.9773V47.0988C35.0761 45.3298 34.1381 43.6987 32.6212 42.8176L20.6752 35.8784Z" stroke="#006CCB" stroke-width="2.35949"/>
<path opacity="0.1" d="M137.947 35.8784C136.431 34.9977 134.564 34.9977 133.048 35.8784L121.102 42.8176C119.585 43.6987 118.647 45.3298 118.647 47.0988V60.9773C118.647 62.7463 119.585 64.3773 121.102 65.2585L133.048 72.1977C134.564 73.0784 136.431 73.0784 137.947 72.1977L149.893 65.2585C151.41 64.3773 152.348 62.7463 152.348 60.9773V47.0988C152.348 45.3298 151.41 43.6987 149.893 42.8176L137.947 35.8784Z" stroke="#006CCB" stroke-width="2.35949"/>
<path opacity="0.1" d="M79.4642 1.93914C77.9481 1.05847 76.0812 1.05847 74.5651 1.93914L62.6191 8.87836C61.1022 9.75951 60.1642 11.3906 60.1642 13.1596V27.038C60.1642 28.8071 61.1022 30.4381 62.6191 31.3193L74.5651 38.2585C76.0812 39.1392 77.9481 39.1392 79.4642 38.2585L91.4102 31.3193C92.9271 30.4381 93.8652 28.807 93.8652 27.038V13.1596C93.8652 11.3906 92.9271 9.75951 91.4102 8.87836L79.4642 1.93914Z" stroke="#006CCB" stroke-width="2.35949"/>
</svg>
