<svg width="184" height="118" viewBox="0 0 184 118" fill="none" xmlns="http://www.w3.org/2000/svg">
<path d="M113.032 69.8174C114.548 68.9367 116.415 68.9367 117.931 69.8174L129.877 76.7566C131.394 77.6378 132.332 79.2689 132.332 81.0379V94.9163C132.332 96.6853 131.394 98.3164 129.877 99.1975L117.931 106.137C116.415 107.017 114.548 107.017 113.032 106.137L101.086 99.1975C99.5689 98.3164 98.6309 96.6853 98.6309 94.9163V81.0379C98.6309 79.2689 99.5689 77.6378 101.086 76.7566L113.032 69.8174Z" stroke="#00B2FF" stroke-width="2.35949"/>
<path d="M132.729 35.8782C134.245 34.9975 136.112 34.9975 137.628 35.8782L149.574 42.8174C151.091 43.6986 152.029 45.3296 152.029 47.0986V60.9771C152.029 62.7461 151.091 64.3772 149.574 65.2583L137.628 72.1975C136.112 73.0782 134.245 73.0782 132.729 72.1975L120.783 65.2583C119.266 64.3772 118.328 62.7461 118.328 60.9771V47.0986C118.328 45.3296 119.266 43.6986 120.783 42.8174L132.729 35.8782Z" stroke="#00B2FF" stroke-width="2.35949"/>
<path d="M171.821 103.757C173.337 102.876 175.204 102.876 176.72 103.757L188.666 110.696C190.183 111.577 191.121 113.208 191.121 114.977V128.856C191.121 130.625 190.183 132.256 188.666 133.137L176.72 140.076C175.204 140.957 173.337 140.957 171.821 140.076L159.875 133.137C158.358 132.256 157.42 130.625 157.42 128.856V114.977C157.42 113.208 158.358 111.577 159.875 110.696L171.821 103.757Z" stroke="#006CCB" stroke-width="2.35949"/>
<path d="M132.729 103.757C134.245 102.876 136.112 102.876 137.628 103.757L149.574 110.696C151.091 111.577 152.029 113.208 152.029 114.977V128.856C152.029 130.625 151.091 132.256 149.574 133.137L137.628 140.076C136.112 140.957 134.245 140.957 132.729 140.076L120.783 133.137C119.266 132.256 118.328 130.625 118.328 128.856V114.977C118.328 113.208 119.266 111.577 120.783 110.696L132.729 103.757Z" stroke="#00B2FF" stroke-width="2.35949"/>
<path opacity="0.5" d="M93.6393 103.757C95.1554 102.876 97.0223 102.876 98.5384 103.757L110.484 110.696C112.001 111.577 112.939 113.208 112.939 114.977V128.856C112.939 130.625 112.001 132.256 110.484 133.137L98.5384 140.076C97.0223 140.957 95.1554 140.957 93.6393 140.076L81.6933 133.137C80.1764 132.256 79.2383 130.625 79.2383 128.856V114.977C79.2383 113.208 80.1764 111.577 81.6933 110.696L93.6393 103.757Z" stroke="#006CCB" stroke-width="2.35949"/>
<path d="M54.5494 103.757C56.0655 102.876 57.9324 102.876 59.4485 103.757L71.3945 110.696C72.9114 111.577 73.8495 113.208 73.8495 114.977V128.856C73.8495 130.625 72.9114 132.256 71.3945 133.137L59.4485 140.076C57.9324 140.957 56.0655 140.957 54.5494 140.076L42.6034 133.137C41.0865 132.256 40.1485 130.625 40.1485 128.856V114.977C40.1485 113.208 41.0865 111.577 42.6034 110.696L54.5494 103.757Z" stroke="#00B2FF" stroke-width="2.35949"/>
<path opacity="0.2" d="M73.942 69.8174C75.4581 68.9367 77.325 68.9367 78.8411 69.8174L90.7871 76.7566C92.304 77.6378 93.2421 79.2689 93.2421 81.0379V94.9163C93.2421 96.6853 92.304 98.3164 90.7871 99.1975L78.8411 106.137C77.325 107.017 75.4581 107.017 73.942 106.137L61.996 99.1975C60.4791 98.3164 59.5411 96.6853 59.5411 94.9163V81.0379C59.5411 79.2689 60.4791 77.6378 61.996 76.7566L73.942 69.8174Z" stroke="#006CCB" stroke-width="2.35949"/>
<path opacity="0.2" d="M152.122 69.8174C153.638 68.9367 155.505 68.9367 157.021 69.8174L168.967 76.7566C170.484 77.6378 171.422 79.2689 171.422 81.0379V94.9163C171.422 96.6853 170.484 98.3164 168.967 99.1975L157.021 106.137C155.505 107.017 153.638 107.017 152.122 106.137L140.176 99.1975C138.659 98.3164 137.721 96.6853 137.721 94.9163V81.0379C137.721 79.2689 138.659 77.6378 140.176 76.7566L152.122 69.8174Z" stroke="#006CCB" stroke-width="2.35949"/>
<path opacity="0.1" d="M190.621 68.7973C192.503 67.7038 194.823 67.7038 196.705 68.7973L208.651 75.7365C210.534 76.83 211.693 78.8509 211.693 81.0379V94.9163C211.693 97.1033 210.534 99.1242 208.651 100.218L196.705 107.157C194.823 108.25 192.503 108.25 190.621 107.157L178.675 100.218C176.792 99.1242 175.633 97.1033 175.633 94.9163V81.0379C175.633 78.8509 176.792 76.83 178.675 75.7365L190.621 68.7973Z" fill="#48C8FF"/>
<path opacity="0.1" d="M171.821 35.8784C173.337 34.9977 175.204 34.9977 176.72 35.8784L188.666 42.8176C190.183 43.6987 191.121 45.3298 191.121 47.0988V60.9773C191.121 62.7463 190.183 64.3773 188.666 65.2585L176.72 72.1977C175.204 73.0784 173.337 73.0784 171.821 72.1977L159.875 65.2585C158.358 64.3773 157.42 62.7463 157.42 60.9773V47.0988C157.42 45.3298 158.358 43.6987 159.875 42.8176L171.821 35.8784Z" stroke="#006CCB" stroke-width="2.35949"/>
<path opacity="0.1" d="M54.5494 35.8784C56.0655 34.9977 57.9324 34.9977 59.4485 35.8784L71.3945 42.8176C72.9114 43.6987 73.8495 45.3298 73.8495 47.0988V60.9773C73.8495 62.7463 72.9114 64.3773 71.3945 65.2585L59.4485 72.1977C57.9324 73.0784 56.0655 73.0784 54.5494 72.1977L42.6034 65.2585C41.0865 64.3773 40.1485 62.7463 40.1485 60.9773V47.0988C40.1485 45.3298 41.0865 43.6987 42.6034 42.8176L54.5494 35.8784Z" stroke="#006CCB" stroke-width="2.35949"/>
<path opacity="0.1" d="M113.032 1.93914C114.548 1.05847 116.415 1.05847 117.931 1.93914L129.877 8.87836C131.394 9.75951 132.332 11.3906 132.332 13.1596V27.038C132.332 28.8071 131.394 30.4381 129.877 31.3193L117.931 38.2585C116.415 39.1392 114.548 39.1392 113.032 38.2585L101.086 31.3193C99.5689 30.4381 98.6309 28.807 98.6309 27.038V13.1596C98.6309 11.3906 99.5689 9.75951 101.086 8.87836L113.032 1.93914Z" stroke="#006CCB" stroke-width="2.35949"/>
</svg>
