<svg width="112" height="112" viewBox="0 0 112 112" fill="none" xmlns="http://www.w3.org/2000/svg">
<path d="M84.9037 22.4C84.185 22.4 83.8746 22.7413 83.6193 22.9797C83.364 23.2181 83.1676 23.4646 82.981 23.7125C82.6076 24.2083 82.2614 24.7408 82.1196 24.9211V24.9239C81.6083 25.577 80.4397 26.0674 79.3508 27.3821C78.3788 28.5565 78.0799 29.921 77.828 31.0242C77.5761 32.1275 77.3588 32.9771 76.9513 33.518C76.8601 33.6389 76.9471 33.5883 76.4924 33.6383C76.0377 33.6883 75.0278 33.7847 74.3082 34.6446L74.3056 34.6473C73.6693 35.4107 73.5159 36.139 73.4288 36.4055C73.4071 36.4066 73.453 36.4 73.4186 36.4C72.8231 36.4 72.2552 36.3349 71.5728 36.4246C70.8903 36.5144 70.0782 36.8691 69.4834 37.5403C68.4738 38.6808 68.3412 40.0339 68.3374 40.9035C68.1597 40.5112 67.9945 40.1055 67.6094 39.7797C67.1117 39.3587 66.4564 39.2 65.8712 39.2C64.7956 39.2 64.1382 39.9028 63.769 40.2528C63.3999 40.6028 63.319 40.6 63.4101 40.6C63.1805 40.6 62.9635 40.5743 62.7154 40.5672C62.8936 40.1927 63.082 39.804 63.082 39.375C63.0825 39.1369 63.026 38.9025 62.9179 38.6942C62.4397 37.7756 61.5562 37.5601 61.0567 37.4801C60.6503 37.415 60.4838 37.3901 60.4414 37.3981C60.3772 37.3467 60.2807 37.2757 60.1543 37.152C59.8566 36.8603 59.2729 36.4 58.4879 36.4C57.6409 36.4 56.9512 37.1037 56.7036 37.5238C56.4574 37.9417 56.3329 38.1875 56.3857 38.1254H56.3832V38.1281C56.2223 38.3185 56.0428 38.3951 55.5551 38.5246C55.0656 38.6546 54.299 38.779 53.5324 39.375C53.0458 39.7532 52.7911 40.2436 52.6531 40.5262C52.5151 40.8088 52.4631 40.8874 52.4685 40.8817L52.4659 40.8844C52.4065 40.9012 52.1425 40.9348 51.7584 41.0567C50.9518 41.3135 50.6601 41.8788 50.5073 42.0821C50.4386 42.1735 50.4191 42.1912 50.4509 42.1641C50.2343 42.2014 50.053 42.2843 49.8587 42.3582C49.8713 42.2203 49.9561 42.1453 49.9561 42C49.9561 41.4081 49.8373 40.8009 49.4793 40.2418C49.1217 39.6833 48.4218 39.2168 47.6873 39.2H47.6847C47.134 39.1887 46.6 39.4395 46.2465 39.7551C45.8926 40.0712 45.6683 40.4303 45.4851 40.7887C45.2712 41.2073 45.1701 41.6451 45.0339 42.0793C44.9304 41.8008 44.8103 41.512 44.5494 41.218C44.2647 40.8971 43.7477 40.6 43.2291 40.6C42.6913 40.6 42.1544 40.8423 41.8191 41.1332C41.5452 41.371 41.4183 41.5812 41.2987 41.7649C41.272 41.7367 41.2756 41.7429 41.2449 41.7102C40.8781 41.3189 40.0571 40.6 38.9632 40.6C34.9773 40.6 33.5082 39.6081 33.2284 39.3176C33.2206 39.2817 33.1011 39.0709 33.0361 38.8227C32.9494 38.4917 32.8925 38.0727 32.8925 37.7809C32.8925 37.5443 33.0006 37.1424 33.0822 36.7719C33.2093 37.0306 33.395 37.3283 33.6898 37.5184C34.0246 37.7342 34.3885 37.8 34.6973 37.8C35.1896 37.8 35.7165 37.5442 36.0304 37.2094C36.3444 36.8746 36.4965 36.5164 36.5996 36.1867C36.8056 35.5274 36.8303 34.9028 36.8303 34.3C36.8303 34.0375 36.8585 33.3731 36.6201 32.6102C36.5008 32.2287 36.3031 31.7897 35.9151 31.4153C35.527 31.0408 34.9376 30.8 34.3692 30.8C34.3358 30.8 33.8435 30.7479 33.3027 30.9231C32.762 31.0983 32.2086 31.4748 31.6364 32.0852C30.548 33.2461 30.3194 33.861 28.8804 35.7356C28.4753 36.2634 28.3438 36.331 28.3011 36.3481C28.2583 36.3651 28.0247 36.3934 27.3987 36.3863C27.3875 36.3862 27.3764 36.3862 27.3653 36.3863C26.8339 36.3947 26.3293 36.454 25.8579 36.7446C25.3865 37.0351 25.1854 37.3634 25.0042 37.5895C25.0025 37.5922 25.0008 37.5949 24.9991 37.5977C24.8941 37.7301 24.9004 37.7481 24.8735 37.8H23.8711C22.5796 37.8 21.5594 38.6414 20.9921 39.4789C20.4248 40.3165 20.1259 41.1991 19.8897 41.7867V41.7895C19.8057 41.9992 19.8004 42.0104 19.7205 42.1942C19.542 42.1363 19.4259 41.9944 19.2386 42C18.8821 42.0107 18.3782 42.0696 17.8901 42.484C17.402 42.8984 17.1415 43.6394 17.1415 44.275C17.1415 45.0702 17.4683 45.7029 17.6363 46.0031C17.6821 46.085 17.6782 46.0759 17.6927 46.1043C17.6739 46.1238 17.6108 46.3543 17.4748 46.8207C17.316 47.3652 17.1415 48.1087 17.1415 49C17.1415 50.5692 17.132 50.7244 17.1415 51.2996V51.3024C17.1459 51.5495 17.1109 51.7023 17.0851 51.8383C16.5659 51.8626 16.0209 51.9089 15.6315 51.9723C14.5198 52.1533 14.5155 52.5082 13.696 52.5082C13.5343 52.5082 13.3075 52.5137 13.0217 52.6285C12.736 52.7433 12.4203 53.0059 12.2398 53.2957C11.8854 53.8651 11.9011 54.317 11.904 54.8106C11.8748 55.7302 12.0241 56.4745 12.2962 57.2824C12.6434 58.3151 13.1446 58.828 13.273 59.1336L13.2756 59.1363C13.5447 59.7714 13.7434 60.8472 14.0754 61.9145C14.0385 61.7966 14.0916 62.0399 14.1139 62.3246C14.1363 62.6112 14.1576 62.9793 14.2062 63.3692C14.2547 63.759 14.3108 64.1664 14.5266 64.6434C14.7424 65.1203 15.385 65.8 16.1571 65.8C17.1819 65.8 17.8837 64.9754 18.1849 64.4C18.4861 63.8246 18.6236 63.2788 18.6771 63.134C18.7116 63.0406 18.7114 63.0364 18.7182 63.0164C18.6937 63.0327 18.7758 63 19.1104 63H20.5871C21.3536 63 21.8833 62.4221 22.115 62.0211C22.3467 61.6201 22.4496 61.2545 22.5354 60.8918C22.7071 60.1664 22.7625 59.4621 22.7867 59.057C22.8009 58.8188 22.8304 58.6323 22.8431 58.3981C22.8514 58.4058 22.8498 58.4123 22.8584 58.4199C23.1016 58.6342 23.4974 58.8 23.8506 58.8H24.9991C25.6526 58.8 25.7197 58.8699 25.6964 58.852C25.6731 58.834 25.8456 59.046 26.1835 59.7051C26.6213 60.5581 27.1866 61.1042 27.5986 61.4824C28.0106 61.8607 28.2605 62.0793 28.5087 62.4969L28.5113 62.4996C28.6498 62.7316 28.839 63.1364 29.2342 63.566C29.6294 63.9956 30.3352 64.4 31.0877 64.4C31.6666 64.4 32.3365 63.947 32.5977 63.4594C32.6869 63.293 32.6537 63.1536 32.6977 62.9973C32.9748 62.9493 33.2918 62.9399 33.7821 62.5926L33.7847 62.5899C34.2103 62.2876 34.2163 62.0153 34.3461 61.7012C34.8926 61.7654 35.3188 61.8538 35.9023 62.0402C37.0099 62.3941 37.6886 62.3379 38.1531 62.4723V62.475C38.2786 63.5457 38.7769 64.3249 39.1991 64.7992C39.4102 65.0364 39.6041 65.2028 39.7631 65.3215C39.8426 65.3808 39.878 65.4116 40.0297 65.491C40.0502 65.5018 40.1117 65.5242 40.1476 65.5402C40.2428 65.6015 40.2483 65.6337 40.3861 65.6824C40.7112 65.7976 40.9581 65.8 41.2603 65.8H41.9678C41.9686 65.8115 41.9696 65.813 41.9704 65.8246C41.9904 66.1429 42.0017 66.5057 42.0165 66.8473C42.0314 67.1889 42.0274 67.4581 42.1114 67.8563C42.181 68.1882 42.2031 68.5254 42.478 69.0293C42.7529 69.5332 43.5427 69.9945 44.0956 69.9945C43.9542 69.9945 44.128 69.9963 44.2418 69.9973C44.2756 70.0343 44.2836 70.038 44.3315 70.0984C44.5337 70.3537 44.7181 70.7382 45.2544 71.1758L45.257 71.1785C45.4945 71.3714 45.6838 71.6557 46.0081 72.1192C46.3325 72.5826 46.8183 73.2127 47.5925 73.6559C48.2175 74.0135 48.7894 74.1971 49.4588 74.2C50.1393 74.2029 50.7143 73.9269 51.1021 73.6942C51.4905 73.4611 51.7572 73.2689 52.0814 73.1199C52.5314 72.913 52.8435 72.845 52.9864 72.8219C52.9857 72.8542 53.215 72.9354 53.4555 73.1555C53.6227 73.3085 53.7981 73.4833 54.0067 73.6641C54.2152 73.8449 54.3206 74.2 55.2065 74.2C55.4252 74.2 55.7515 74.2827 56.3242 74.1809C56.6106 74.13 57.0266 73.9934 57.3651 73.6067C57.7035 73.2199 57.8316 72.6833 57.8316 72.275C57.8316 71.9234 57.832 71.7205 57.8316 71.5039C57.9417 71.5865 58.0339 71.667 58.2675 71.7938L58.27 71.7965C58.6322 71.9917 59.7458 72.8 61.9335 72.8H61.9412C62.2406 72.7979 62.7243 73.0022 63.4486 73.3633C64.1728 73.7244 65.1406 74.2 66.3634 74.2C67.1291 74.2 67.8155 73.8148 68.2503 73.3934C68.6851 72.9719 68.9531 72.5295 69.1809 72.1766C69.4087 71.8236 69.5984 71.5591 69.7039 71.4574C69.8093 71.3558 69.7367 71.399 69.7756 71.4C70.5386 71.4209 71.3604 71.436 72.2034 70.927C73.0464 70.4179 73.5826 69.2569 73.5826 68.075C73.5985 66.9069 73.5624 66.3799 73.6493 66.1527C73.7057 66.0052 73.8193 65.9035 74.1364 65.8383C74.4525 65.7733 74.8817 65.879 74.9747 65.9367C75.4621 66.2457 76.0703 66.8207 76.7385 67.3805C77.4067 67.9403 78.1679 68.6 79.3252 68.6C80.4988 68.6 81.683 68.3786 82.6579 67.5363C82.7077 67.7942 82.7707 68.0138 82.7707 68.425C82.7707 68.9274 82.7351 68.8568 82.44 69.2344C82.1449 69.612 81.4996 70.5886 81.6325 71.7445C81.6688 72.066 81.7033 72.094 81.7427 72.2176C81.7824 72.3418 81.8305 72.4745 81.8863 72.6223C81.9979 72.9179 82.1413 73.2661 82.3093 73.6203C82.4772 73.9745 82.6608 74.3278 82.8964 74.6649C83.0142 74.8334 83.1402 74.9998 83.3399 75.1762C83.5396 75.3526 83.8433 75.6 84.3833 75.6C84.9049 75.6 85.0629 75.4422 85.2318 75.3402C85.4008 75.2383 85.5351 75.1333 85.6728 75.0203C85.9481 74.7943 86.2208 74.5337 86.4906 74.2602C87.0301 73.7132 87.4591 73.2592 87.7801 72.7891C88.4486 71.8088 89.3008 70.4846 89.3337 68.8051C89.3338 68.7951 89.3338 68.785 89.3337 68.775C89.3337 65.5751 88.6053 62.7295 87.5878 60.1781V60.1754C87.3547 59.5915 86.9458 58.3439 86.206 57.3098C85.8361 56.7927 85.3406 56.2183 84.4833 56.0574C83.626 55.8966 82.7283 56.4133 82.176 57.1211C82.0149 57.3259 81.8545 57.4 81.7863 57.4C81.7226 57.4 81.738 57.3948 81.6889 57.3918C81.6359 57.2446 81.4582 56.7736 81.4582 55.125C81.4582 54.2632 81.5912 53.1698 81.6427 52.861V52.8582C81.8415 51.6549 82.1857 50.5784 82.7733 49.7848C82.9869 49.4967 83.1675 49.3754 83.5321 49.0793C83.8968 48.7832 84.4184 48.2761 84.7678 47.5207C85.5412 45.851 85.4071 44.2661 85.3959 43.0363C85.3938 42.8244 85.3754 42.8055 85.3651 42.8012C85.3745 42.8131 85.3941 42.8174 85.4267 42.7957C85.4918 42.7524 85.6497 42.6948 85.9445 42.4731C86.0028 42.4293 86.0289 42.2464 86.0958 42.1723C86.6658 43.1612 87.2871 44.0186 87.6801 44.7781C87.9284 45.2588 88.154 46.1133 88.4697 47.0586C88.7849 48.0022 89.2227 49.1048 90.1976 49.9078C90.8995 50.4895 91.7354 50.8991 92.5151 51.2231C92.905 51.385 93.2773 51.518 93.6073 51.6168C93.9372 51.7156 94.1488 51.8 94.584 51.8C94.9321 51.8 95.2659 51.6525 95.5121 51.3899C95.7582 51.1274 95.8966 50.7713 95.8966 50.4C95.8966 49.5227 95.4248 48.7924 95.0788 48.4231C94.7328 48.0538 94.5196 47.8602 94.5122 47.8488C94.2487 47.446 94.0713 46.92 93.8072 46.3149L93.8046 46.3094C93.5773 45.7822 93.4627 45.3536 93.115 44.6633C92.4733 43.3882 91.4464 42.3845 90.2002 41.8961L90.1976 41.8934C89.9231 41.7867 89.7831 41.644 89.6131 41.2043C89.4431 40.7646 89.3337 40.0502 89.3337 39.2V37.8301C89.5405 37.7213 89.8049 37.5878 90.0822 37.2641C90.3968 36.897 90.629 36.3118 90.6462 35.7465C90.6827 34.5553 90.1553 33.9051 89.8259 33.2965C89.4965 32.6879 89.3337 32.1502 89.3337 32.2C89.3337 31.325 89.185 30.4545 88.5133 29.8813C87.8416 29.3081 87.2007 29.4 86.8726 29.4C86.8124 29.4 86.8033 29.3976 86.7777 29.3645C86.7521 29.3313 86.6476 29.1912 86.7008 28.6809C86.7061 28.6291 86.7086 28.5771 86.7085 28.525C86.7085 28.6222 86.7607 28.4176 87.1007 27.9371C87.4407 27.4566 88.0211 26.6794 88.0211 25.5336C88.0211 24.9977 87.8969 24.9157 87.8416 24.809C87.7863 24.7023 87.7422 24.6368 87.7006 24.5766C87.6174 24.4562 87.5386 24.36 87.4494 24.2539C87.271 24.0418 87.0584 23.8114 86.829 23.5813C86.5995 23.3511 86.361 23.1277 86.1163 22.9305C85.994 22.8319 85.871 22.7387 85.7164 22.6461C85.5617 22.5536 85.4317 22.4 84.9037 22.4ZM76.8385 25.2028C76.0477 25.2565 76.0797 27.3018 76.5001 27.9535C77.3703 28.3945 77.8726 25.672 77.2281 25.3094C77.0803 25.2259 76.9514 25.1951 76.8385 25.2028ZM84.9627 25.5582C84.9873 25.5824 85.0049 25.5966 85.0293 25.6211C85.1068 25.6989 85.1584 25.7612 85.2293 25.8371C85.1754 25.9525 85.1859 25.9925 85.0037 26.25C84.6972 26.6831 84.1472 27.3704 84.1115 28.4539C84.0238 29.4818 84.2206 30.453 84.7524 31.1418C85.2649 31.8055 86.0136 32.1043 86.729 32.1453C86.7201 32.1513 86.7085 32.137 86.7085 32.2C86.7085 33.3573 87.2175 34.0787 87.5519 34.6965C87.8242 35.1996 87.8893 35.4343 87.9339 35.4758C87.8109 35.5319 87.6894 35.5741 87.452 35.7574C87.23 35.9289 87.0767 36.4 86.9315 36.8211C86.6972 36.6432 86.5332 36.4085 86.1983 36.411C85.5444 36.4208 84.6886 36.9218 84.3858 37.5676C84.0802 38.2197 84.0833 38.7722 84.0833 39.375C84.0831 39.3914 84.0831 39.4078 84.0833 39.4242C84.0928 39.7119 84.0867 40.0598 84.0833 40.3922C84.056 40.4099 84.0695 40.3998 84.0397 40.4195C83.5094 40.7722 82.7585 41.8135 82.7707 43.0637C82.7831 44.4211 82.8381 45.3647 82.4144 46.2793C82.2703 46.5907 82.2087 46.6348 81.9427 46.8508C81.6767 47.0668 81.1811 47.4195 80.7147 48.0485H80.7121C79.7325 49.3717 79.2983 50.9204 79.0586 52.3715C78.971 52.8977 78.833 53.9943 78.833 55.125C78.833 57.1376 78.9338 58.2858 79.5611 59.2485L79.5636 59.2539C79.8398 59.6748 80.2777 59.9402 80.6557 60.0578C81.0337 60.1755 81.3882 60.2 81.7863 60.2C82.8178 60.2 83.5957 59.6141 84.1115 58.9887C84.1268 59.0074 84.1025 58.9846 84.1192 59.0078C84.4678 59.4951 84.8941 60.5761 85.1729 61.2746C86.0893 63.5733 86.7021 66.0118 86.7059 68.7504C86.6945 69.2177 86.1926 70.3555 85.6574 71.1402C85.683 71.1027 85.1396 71.7658 84.6832 72.2285C84.6603 72.2517 84.6445 72.2631 84.6217 72.2859C84.5074 72.0391 84.3953 71.7767 84.3192 71.575C84.2879 71.4921 84.2688 71.4365 84.25 71.3809C84.2197 71.2059 84.1582 71.4085 84.4576 71.0254C84.7771 70.6166 85.3959 69.6726 85.3959 68.425C85.3959 67.5836 85.3244 66.7868 85.0319 66.027C84.7396 65.2678 83.9849 64.4112 83.004 64.3563H83.0015C81.9549 64.2979 81.5289 64.9303 81.1428 65.3844C81.1252 65.4052 80.2867 65.8 79.3252 65.8C79.334 65.8 78.9138 65.6443 78.3587 65.1793C77.8036 64.7143 77.1446 64.0559 76.3155 63.5305V63.5277C75.4958 63.01 74.5758 62.8982 73.6416 63.0902C72.7074 63.2823 71.6706 63.9149 71.219 65.0973C70.7949 66.2059 70.9717 67.0714 70.9575 68.0531C70.9574 68.0604 70.9574 68.0677 70.9575 68.075C70.9575 68.6431 70.9533 68.4653 70.9113 68.4906C70.8693 68.516 70.4615 68.6169 69.8423 68.6C69.0773 68.5794 68.3776 68.96 67.9426 69.3793C67.5076 69.7986 67.2447 70.2382 67.0172 70.5906C66.7897 70.9431 66.5977 71.2104 66.4839 71.3207C66.3701 71.4311 66.4182 71.4 66.3634 71.4C65.7815 71.4 65.2434 71.1699 64.5586 70.8285C63.8739 70.4872 63.0452 69.9923 61.9258 70C60.1908 69.9989 60.3103 69.7579 59.457 69.2973H59.4544C59.4149 69.2755 59.2884 69.1771 59.0494 69.0156C58.8093 68.8535 58.4005 68.6042 57.8419 68.6C57.4418 68.597 56.921 68.6166 56.337 68.9609C55.7531 69.3053 55.2215 70.1674 55.2065 71.0227V71.0254C55.206 71.0512 55.2068 71.0451 55.2065 71.0692C55.189 71.053 55.1834 71.0473 55.1655 71.0309C54.7304 70.6326 54.1752 69.9762 53.0479 70H53.0453C52.4294 70.0133 51.8079 70.1982 51.0431 70.5496V70.5469C50.4682 70.811 50.0614 71.1046 49.8151 71.2524C49.5689 71.4002 49.5472 71.4004 49.4716 71.4H49.469C49.4926 71.4001 49.0351 71.305 48.8333 71.1895C48.5363 71.0195 48.3818 70.8272 48.1129 70.443C47.8445 70.0595 47.4885 69.4731 46.849 68.9527L46.8464 68.95C46.9378 69.0236 46.6426 68.6777 46.3363 68.291C46.1824 68.0968 46.0056 67.883 45.7441 67.6676C45.5145 67.4786 45.1337 67.305 44.6776 67.2574C44.675 67.2454 44.6777 67.2563 44.675 67.2438C44.6901 67.3151 44.6526 67.0264 44.6391 66.716C44.6257 66.4057 44.6148 66.0235 44.5904 65.636C44.5661 65.2484 44.5387 64.8708 44.4392 64.4547C44.3894 64.2467 44.3334 64.0234 44.1495 63.7301C43.9657 63.4369 43.4826 63 42.901 63H41.2603C41.2078 63 41.273 63.0103 41.2474 63.0082C41.2218 62.9877 41.1699 62.9457 41.1039 62.8715C40.9575 62.707 40.8094 62.465 40.7655 62.1496C40.7681 61.8834 40.7673 61.5557 40.5886 61.1106C40.3785 60.5872 39.8919 60.1625 39.4606 59.9594C38.1807 59.3582 37.1585 59.5192 36.6534 59.3578C36.1158 59.186 35.2345 58.8 33.877 58.8C33.3969 58.8 32.7971 59.1603 32.5567 59.5082C32.3163 59.8561 32.2732 60.0961 32.2286 60.2438C32.2177 60.2797 32.2232 60.2616 32.2157 60.2848C32.1878 60.2825 32.1257 60.3062 31.8491 60.3695C31.6673 60.4112 31.4485 60.4442 31.1185 60.632C31.0029 60.6979 30.9532 60.9919 30.8211 61.1488C30.7802 61.0812 30.7754 61.0808 30.7263 60.9985L30.7237 60.9957C30.2493 60.1992 29.6926 59.7108 29.3111 59.3606C28.929 59.0097 28.7133 58.8059 28.4856 58.3625C28.1423 57.693 27.8859 57.0879 27.2346 56.5852C26.5832 56.0825 25.8222 56 24.9991 56H24.5633C24.5105 55.8296 24.4851 55.682 24.33 55.4367C24.0928 55.0617 23.4857 54.6 22.8841 54.6C22.2096 54.6 21.5259 54.9176 21.1049 55.382C20.6839 55.8465 20.4905 56.3701 20.3743 56.834C20.1418 57.7619 20.1802 58.6519 20.1666 58.8793C20.1488 59.1773 20.0871 59.7855 19.9897 60.2H19.1104C18.6596 60.2 18.1352 60.1898 17.5363 60.4981C17.1307 60.7068 16.9079 61.1719 16.6544 61.5891C16.6347 61.4144 16.6413 61.2696 16.5673 61.0313C16.3244 60.2505 16.1412 59.1029 15.6674 57.9852C15.2741 57.0513 14.8535 56.5995 14.765 56.3363C14.5571 55.7193 14.5539 55.5445 14.5599 55.0977C15.1812 54.931 16.0337 54.7383 16.0263 54.7395C16.4367 54.6726 17.1928 54.5939 17.4389 54.6C17.4492 54.6001 17.4594 54.6001 17.4697 54.6C18.3965 54.6 19.2159 53.7955 19.4847 53.1125C19.7531 52.4306 19.7764 51.8062 19.7667 51.2504V51.2477C19.7579 50.7158 19.7667 50.5789 19.7667 49C19.7667 48.4914 19.861 48.0671 19.982 47.652C20.1029 47.2376 20.2903 46.9004 20.3435 46.2137C20.3767 45.7869 20.2184 45.6536 20.1102 45.3742C20.349 45.3649 20.6072 45.3863 20.7716 45.3004C21.0304 45.1653 21.1823 45.0137 21.3126 44.8684L21.3177 44.8629C22.0329 44.0579 22.1628 43.2404 22.3021 42.8914V42.8887C22.5697 42.2227 22.837 41.5373 23.1199 41.1196C23.4032 40.7013 23.5218 40.6 23.8711 40.6H25.6759C25.9566 40.5997 26.2298 40.5034 26.4555 40.3252C26.6811 40.1471 26.8472 39.8965 26.9295 39.6102C26.9421 39.5809 26.9547 39.5512 26.9757 39.5063C27.0055 39.4422 27.0404 39.3742 27.0628 39.3313C27.1092 39.2762 27.1535 39.226 27.1756 39.2C27.2143 39.1958 27.269 39.1879 27.3833 39.1836C27.9939 39.191 28.5528 39.2373 29.2214 38.9703C29.6511 38.7987 29.9626 38.3881 30.3007 38.0379C30.3221 38.5614 30.3796 39.0859 30.5083 39.5774C30.6586 40.1508 30.8023 40.6673 31.28 41.2098C32.3543 42.4292 34.5035 43.4 38.9632 43.4C39.182 43.4 39.0993 43.3811 39.3888 43.6899C39.5335 43.8442 39.7266 44.0786 40.0528 44.3242C40.379 44.5698 40.8865 44.8 41.4243 44.8C41.9794 44.8 42.521 44.4952 42.8138 44.2012C42.8207 44.1943 42.8198 44.1917 42.8266 44.1848C42.8339 44.2338 42.843 44.2497 42.8497 44.2996C42.917 44.797 42.9684 45.3257 43.0728 45.8391C43.1249 46.0957 43.1753 46.347 43.3368 46.6731C43.4176 46.8361 43.529 47.0315 43.7496 47.2281C43.97 47.4248 44.3417 47.6 44.7058 47.6C45.3528 47.6 45.8596 47.1753 46.1158 46.8344C46.1284 46.8176 46.1294 46.8019 46.1414 46.7852C46.2462 47.0279 46.4138 47.2336 46.6246 47.378C46.8354 47.5224 47.0805 47.5994 47.331 47.6C48.1604 47.6 48.6817 47.0635 48.9922 46.6895C49.3027 46.3154 49.5184 45.9614 49.7382 45.6613C50.1778 45.0613 50.4126 44.8 50.9406 44.8C51.4142 44.8 51.8389 44.5692 52.084 44.3598C52.329 44.1504 52.4589 43.9635 52.5557 43.8348C52.6284 43.738 52.6535 43.719 52.6762 43.6981C52.7907 43.674 52.8884 43.6618 53.1376 43.5914C53.4785 43.4952 53.9624 43.2464 54.322 42.8641L54.3246 42.8613C54.7185 42.4412 54.8816 42.0228 54.9809 41.8195C55.0801 41.6163 55.0858 41.6305 55.0783 41.6363C55.2607 41.4945 55.5995 41.3996 56.1909 41.2426C56.7823 41.0856 57.6566 40.8076 58.3392 39.9957L58.3418 39.993C58.5732 39.7166 58.5819 39.6253 58.6674 39.4488C58.7732 39.6006 58.7916 39.7476 59.3006 39.9711C59.4706 40.0457 59.5039 40.0053 59.6441 40.0422C59.3988 40.4045 59.1442 40.8314 59.1442 41.2809C59.1442 42.0975 59.7545 42.7198 60.1671 42.9406C60.5797 43.1614 60.9423 43.2305 61.3131 43.2879C62.0545 43.4027 62.8294 43.4 63.4101 43.4C64.4857 43.4 65.1431 42.6973 65.5123 42.3473C65.8815 41.9973 65.9624 42 65.8712 42C65.9585 42 65.9712 42.002 65.9891 42.0028C65.963 41.9806 66.0141 42.015 66.1276 42.3063H66.125C66.0305 42.0631 66.1045 42.2591 66.143 42.4457C66.1814 42.6323 66.2376 42.8898 66.3429 43.1867C66.4482 43.4836 66.5986 43.8356 66.9197 44.1766C67.2409 44.5175 67.7912 44.8 68.3323 44.8C68.9007 44.8 69.4802 44.5645 69.8756 44.2039C70.271 43.8433 70.496 43.4128 70.6422 43.0145C70.9344 42.2178 70.9575 41.4809 70.9575 40.95C70.9575 40.0676 70.8191 40.1112 71.3933 39.4625C71.5903 39.2405 71.6131 39.2423 71.8932 39.2055C72.1745 39.1685 72.7015 39.2 73.4186 39.2C73.9441 39.2 74.4765 39.0959 74.9311 38.7735C75.3858 38.451 75.6387 37.9774 75.7694 37.6524C76.0303 37.0036 76.0437 36.781 76.2693 36.5094C76.3125 36.4575 76.2609 36.477 76.7616 36.4219C77.2647 36.3666 78.3125 36.1815 78.9971 35.2735C79.889 34.0895 80.1333 32.7615 80.3789 31.686C80.6244 30.6104 80.8584 29.7934 81.3197 29.236C81.861 28.5834 83.0643 28.0822 84.132 26.7203C84.431 26.3403 84.7042 25.912 84.9627 25.5582ZM46.4286 28.0028C45.9376 28.0542 45.957 28.6764 46.1235 29.1321C46.3663 29.7957 47.4639 30.5951 48.0821 30.7617C48.6439 30.9129 49.9391 30.6336 49.9561 29.7992C49.9798 28.6414 48.3641 29.079 47.7642 28.834C47.3967 28.6842 47.0357 28.0906 46.6721 28.0192C46.5801 28.0011 46.4987 27.9954 46.4286 28.0028ZM55.3295 29.4028C54.5593 29.5201 53.895 30.6575 53.8939 31.1965C53.8899 32.2367 54.6338 32.3418 55.55 32.0688C56.7064 31.7258 56.6765 31.4189 56.2473 30.5621C55.994 30.0595 56.34 29.597 55.6654 29.4192C55.5526 29.3896 55.4395 29.386 55.3295 29.4028ZM72.6546 32.211C71.1782 32.3238 68.4432 33.3382 68.3349 34.3C68.3126 34.5072 68.4108 34.7139 68.6707 34.9071C68.9949 35.1479 70.1526 34.8792 70.8062 34.609C71.4271 34.3528 71.3992 33.8929 71.9112 33.5289C72.2629 33.2783 73.7497 32.956 73.5673 32.4352C73.4984 32.2371 73.1467 32.1733 72.6546 32.211ZM57.0241 33.6055C56.253 33.5125 55.0665 34.8229 55.2193 35.7C55.2626 35.9464 55.4124 36.1589 55.7064 36.2961C56.6514 36.7371 57.9184 35.7 57.8265 34.65C57.7976 34.3322 57.6469 34.0153 57.324 33.7367C57.2359 33.6608 57.1342 33.6188 57.0241 33.6055ZM45.6261 33.6137C44.4344 33.7008 43.3386 34.2424 42.1909 35.2653C41.4466 35.9289 40.4454 36.9018 40.868 38.243C41.1319 39.0844 42.2473 39.8214 42.3011 38.3934C42.5059 36.3088 44.6086 35.5879 45.9671 35.4129C46.6431 35.3261 47.5549 35.6516 48.1744 35.2106C49.0551 34.582 48.5444 34.1518 47.9078 33.9418C47.0912 33.672 46.3412 33.5614 45.6261 33.6137ZM15.0829 35C13.7496 35.0061 15.0743 37.1565 15.9828 37.6196C17.8217 38.5534 17.2453 35.5945 15.8238 35.1395C15.5158 35.0416 15.2734 34.9992 15.0829 35ZM26.7577 38.4125L26.7654 38.4207L26.768 38.4317C26.7646 38.4253 26.7612 38.4189 26.7577 38.4125ZM17.4697 51.8H17.5004C17.4879 51.7997 17.4771 51.8029 17.4645 51.8028L17.4697 51.8ZM93.7636 53.2219C93.6101 53.2233 93.2714 53.2 93.2714 53.725C93.2714 54.2248 94.1095 54.9431 94.2302 55.4695C94.3772 56.1121 94.1888 56.7656 94.3148 57.411C94.4159 57.9318 94.6838 58.4214 94.8019 58.9422C94.9174 59.4546 95.1162 60.972 95.8145 59.7078C96.1322 59.1352 95.498 57.813 95.0583 57.4C95.5676 56 95.0762 53.2009 93.7636 53.2219ZM13.9549 55.2453C13.9524 55.2464 13.9497 55.2498 13.9472 55.2508C13.7828 55.3169 13.696 55.3082 13.696 55.3082C13.8601 55.3082 13.8063 55.2578 13.9549 55.2453ZM88.2646 57.4C88.0981 57.3899 87.9645 57.4964 87.8852 57.7692C87.7067 58.3866 88.5044 59.4933 88.7748 59.9567C89.5715 61.3245 90.4599 62.5966 91.1359 64.061C91.3236 64.4683 91.4862 65.4058 91.8537 65.6578C92.5179 66.117 92.4843 65.3446 92.8151 64.884C92.8689 64.8098 93.2714 65.2726 93.274 64.616C93.2753 64.2716 92.7285 64.0095 92.5408 63.8723C92.2139 63.6343 90.9213 63.0956 91.3256 62.341C91.5763 61.872 92.3404 62.627 92.2485 61.7422C92.1855 61.1486 91.0568 60.441 90.7129 60.0742C90.3407 59.6772 88.9863 57.4437 88.2646 57.4ZM95.2352 61.6C94.9831 61.6588 94.3894 65.7109 94.5994 65.7809C95.6074 66.1127 96.5871 61.9346 95.2352 61.6ZM39.7144 65.2531C39.7408 65.278 39.7682 65.3017 39.7964 65.3242C39.7819 65.3125 39.7705 65.3094 39.7375 65.2777C39.7326 65.2731 39.7199 65.2585 39.7144 65.2531Z" fill="#333333"/>
<path d="M89.0997 65.3532C91.1629 64.0822 93.6387 64.0822 95.7018 65.3532L108.7 73.0846C110.763 74.3555 112.001 76.5796 112.001 79.0156V94.5844C112.001 97.0203 110.763 99.3503 108.7 100.515L95.7018 108.247C93.6387 109.518 91.1629 109.518 89.0997 108.247L76.1018 100.515C74.0387 99.2444 72.8008 97.0203 72.8008 94.5844V79.0156C72.8008 76.5796 74.0387 74.2496 76.1018 73.0846L89.0997 65.3532Z" fill="#00B2FF"/>
<path d="M89.0997 65.3532C91.1629 64.0822 93.6387 64.0822 95.7018 65.3532L108.7 73.0846C110.763 74.3555 112.001 76.5796 112.001 79.0156V94.5844C112.001 97.0203 110.763 99.3503 108.7 100.515L95.7018 108.247C93.6387 109.518 91.1629 109.518 89.0997 108.247L76.1018 100.515C74.0387 99.2444 72.8008 97.0203 72.8008 94.5844V79.0156C72.8008 76.5796 74.0387 74.2496 76.1018 73.0846L89.0997 65.3532Z" fill="url(#paint0_linear)"/>
<path fill-rule="evenodd" clip-rule="evenodd" d="M103.207 80.2256C103.745 80.7808 103.731 81.6672 103.176 82.2053L89.2016 95.7497L83.0272 89.7653C82.472 89.2272 82.4581 88.3408 82.9963 87.7856C83.5344 87.2304 84.4207 87.2166 84.9759 87.7547L89.2016 91.8503L101.227 80.1947C101.782 79.6566 102.669 79.6704 103.207 80.2256Z" fill="white"/>
<defs>
<linearGradient id="paint0_linear" x1="72.804" y1="64.3323" x2="113.17" y2="108.126" gradientUnits="userSpaceOnUse">
<stop stop-color="#2896F5" stop-opacity="0"/>
<stop offset="1" stop-color="#2896F5"/>
</linearGradient>
</defs>
</svg>
