<svg width="11" height="8" viewBox="0 0 11 8" fill="none" xmlns="http://www.w3.org/2000/svg">
<path d="M4.58988 7.7845C4.63575 7.85112 4.69713 7.90559 4.76873 7.94322C4.84033 7.98085 4.92 8.00052 5.00088 8.00052C5.08177 8.00052 5.16144 7.98085 5.23304 7.94322C5.30464 7.90559 5.36601 7.85112 5.41188 7.7845L9.91189 1.2845C9.96397 1.20953 9.99452 1.12172 10.0002 1.0306C10.0059 0.93949 9.98649 0.848562 9.94413 0.767697C9.90176 0.686832 9.83805 0.619124 9.7599 0.571929C9.68176 0.524734 9.59218 0.499857 9.50089 0.500001H0.500884C0.409806 0.500377 0.320553 0.525574 0.242724 0.572882C0.164895 0.62019 0.101435 0.68782 0.0591683 0.768497C0.0169012 0.849175 -0.00257346 0.939848 0.00283852 1.03077C0.0082505 1.12168 0.0383444 1.20941 0.0898838 1.2845L4.58988 7.7845Z" fill="#91A3AD"/>
</svg>
