<svg width="24" height="18" viewBox="0 0 24 18" fill="none" xmlns="http://www.w3.org/2000/svg">
<path d="M23.4941 3.20498C23.3551 2.70674 23.0898 2.2528 22.7241 1.88703C22.3583 1.52126 21.9044 1.25603 21.4061 1.11698C19.5361 0.615981 12.0101 0.615981 12.0101 0.615981C12.0101 0.615981 4.50312 0.605981 2.61412 1.11698C2.11588 1.25603 1.66194 1.52126 1.29617 1.88703C0.930402 2.2528 0.665173 2.70674 0.526122 3.20498C0.171643 5.11949 -0.00311721 7.06294 0.00412224 9.00998C-0.00174863 10.9497 0.173006 12.8857 0.526122 14.793C0.665173 15.2912 0.930402 15.7452 1.29617 16.1109C1.66194 16.4767 2.11588 16.7419 2.61412 16.881C4.48212 17.383 12.0101 17.383 12.0101 17.383C12.0101 17.383 19.5161 17.383 21.4061 16.881C21.9044 16.7419 22.3583 16.4767 22.7241 16.1109C23.0898 15.7452 23.3551 15.2912 23.4941 14.793C23.8399 12.885 24.0073 10.949 23.9941 9.00998C24.0086 7.06363 23.8412 5.12018 23.4941 3.20498ZM9.60812 12.601V5.40798L15.8721 9.00998L9.60812 12.601Z" fill="white"/>
</svg>
